# MagicaVoxel @ ephtracy

# material
mtllib akka.mtl
usemtl palette

# normals
vn -1 0 0
vn 1 0 0
vn 0 0 1
vn 0 0 -1
vn 0 -1 0
vn 0 1 0

# texcoords
vt 0.0332031 0.5
vt 0.0449219 0.5
vt 0.111328 0.5
vt 0.134766 0.5

# verts
v -6.5 14 4.5
v -6.5 14 2.5
v -6.5 14 -9.5
v -6.5 14 -11.5
v -6.5 15 4.5
v -6.5 15 2.5
v -6.5 15 -9.5
v -6.5 15 -11.5
v -4.5 15 4.5
v -4.5 15 2.5
v -4.5 15 -9.5
v -4.5 15 -11.5
v -4.5 16 4.5
v -4.5 16 2.5
v -4.5 16 -9.5
v -4.5 16 -11.5
v -3.5 13 -0.5
v -3.5 13 -6.5
v -3.5 16 -0.5
v -3.5 16 -6.5
v -2.5 0 -0.5
v -2.5 0 -2.5
v -2.5 0 -4.5
v -2.5 0 -6.5
v -2.5 1 -0.5
v -2.5 1 -2.5
v -2.5 1 -4.5
v -2.5 1 -6.5
v -2.5 8 -0.5
v -2.5 8 -6.5
v -2.5 9 -0.5
v -2.5 9 -6.5
v -2.5 13 -0.5
v -2.5 13 -6.5
v -2.5 17 -1.5
v -2.5 17 -5.5
v -2.5 20 -1.5
v -2.5 20 -2.5
v -2.5 20 -4.5
v -2.5 20 -5.5
v -2.5 21 -2.5
v -2.5 21 -4.5
v -1.5 1 -0.5
v -1.5 1 -2.5
v -1.5 1 -4.5
v -1.5 1 -6.5
v -1.5 7 -0.5
v -1.5 7 -2.5
v -1.5 7 -4.5
v -1.5 7 -6.5
v -1.5 8 -0.5
v -1.5 8 -6.5
v -1.5 14 2.5
v -1.5 14 -0.5
v -1.5 14 -6.5
v -1.5 14 -9.5
v -1.5 16 2.5
v -1.5 16 -0.5
v -1.5 16 -2.5
v -1.5 16 -4.5
v -1.5 16 -6.5
v -1.5 16 -9.5
v -1.5 17 -2.5
v -1.5 17 -4.5
v -1.5 20 -1.5
v -1.5 20 -2.5
v -1.5 20 -4.5
v -1.5 20 -5.5
v -1.5 21 -1.5
v -1.5 21 -2.5
v -1.5 21 -4.5
v -1.5 21 -5.5
v -0.5 16 -1.5
v -0.5 16 -2.5
v -0.5 16 -4.5
v -0.5 16 -5.5
v -0.5 17 -1.5
v -0.5 17 -2.5
v -0.5 17 -4.5
v -0.5 17 -5.5
v -0.5 14 -10.5
v -0.5 14 -11.5
v -0.5 16 -10.5
v -0.5 16 -11.5
v 0.5 0 -0.5
v 0.5 0 -2.5
v 0.5 0 -4.5
v 0.5 0 -6.5
v 0.5 7 -0.5
v 0.5 7 -2.5
v 0.5 7 -4.5
v 0.5 7 -6.5
v 0.5 14 4.5
v 0.5 14 -0.5
v 0.5 14 -6.5
v 0.5 14 -10.5
v 0.5 16 4.5
v 0.5 16 -0.5
v 0.5 16 -6.5
v 0.5 16 -10.5
v 0.5 20 -1.5
v 0.5 20 -2.5
v 0.5 20 -4.5
v 0.5 20 -5.5
v 0.5 21 -1.5
v 0.5 21 -2.5
v 0.5 21 -4.5
v 0.5 21 -5.5
v 1.5 7 -0.5
v 1.5 7 -6.5
v 1.5 9 -0.5
v 1.5 9 -6.5
v 1.5 13 -0.5
v 1.5 13 -6.5
v 1.5 14 -2.5
v 1.5 14 -4.5
v 1.5 15 -1.5
v 1.5 15 -2.5
v 1.5 15 -4.5
v 1.5 15 -5.5
v 1.5 16 -0.5
v 1.5 16 -1.5
v 1.5 16 -5.5
v 1.5 16 -6.5
v 1.5 20 -1.5
v 1.5 20 -2.5
v 1.5 20 -4.5
v 1.5 20 -5.5
v 1.5 21 -2.5
v 1.5 21 -4.5
v -6.5 14 4.5
v -6.5 15 4.5
v -4.5 15 4.5
v -4.5 16 4.5
v 0.5 14 4.5
v 0.5 16 4.5
v -3.5 13 -0.5
v -3.5 16 -0.5
v -2.5 0 -0.5
v -2.5 1 -0.5
v -2.5 8 -0.5
v -2.5 9 -0.5
v -2.5 13 -0.5
v -1.5 1 -0.5
v -1.5 7 -0.5
v -1.5 8 -0.5
v -1.5 14 -0.5
v -1.5 16 -0.5
v 0.5 0 -0.5
v 0.5 7 -0.5
v 0.5 14 -0.5
v 0.5 16 -0.5
v 1.5 7 -0.5
v 1.5 9 -0.5
v 1.5 13 -0.5
v 1.5 16 -0.5
v -2.5 17 -1.5
v -2.5 20 -1.5
v -1.5 17 -1.5
v -1.5 20 -1.5
v -1.5 21 -1.5
v -0.5 16 -1.5
v -0.5 17 -1.5
v 0.5 20 -1.5
v 0.5 21 -1.5
v 1.5 16 -1.5
v 1.5 20 -1.5
v -2.5 20 -2.5
v -2.5 21 -2.5
v -1.5 16 -2.5
v -1.5 17 -2.5
v -1.5 20 -2.5
v -1.5 21 -2.5
v -0.5 16 -2.5
v -0.5 17 -2.5
v 0.5 20 -2.5
v 0.5 21 -2.5
v 1.5 20 -2.5
v 1.5 21 -2.5
v -2.5 0 -4.5
v -2.5 1 -4.5
v -1.5 1 -4.5
v -1.5 7 -4.5
v 0.5 0 -4.5
v 0.5 7 -4.5
v -6.5 14 -9.5
v -6.5 15 -9.5
v -4.5 15 -9.5
v -4.5 16 -9.5
v -1.5 14 -9.5
v -1.5 16 -9.5
v -6.5 14 2.5
v -6.5 15 2.5
v -4.5 15 2.5
v -4.5 16 2.5
v -1.5 14 2.5
v -1.5 16 2.5
v -2.5 0 -2.5
v -2.5 1 -2.5
v -1.5 1 -2.5
v -1.5 7 -2.5
v 0.5 0 -2.5
v 0.5 7 -2.5
v -2.5 20 -4.5
v -2.5 21 -4.5
v -1.5 16 -4.5
v -1.5 17 -4.5
v -1.5 20 -4.5
v -1.5 21 -4.5
v -0.5 16 -4.5
v -0.5 17 -4.5
v 0.5 20 -4.5
v 0.5 21 -4.5
v 1.5 20 -4.5
v 1.5 21 -4.5
v -2.5 17 -5.5
v -2.5 20 -5.5
v -1.5 17 -5.5
v -1.5 20 -5.5
v -1.5 21 -5.5
v -0.5 16 -5.5
v -0.5 17 -5.5
v 0.5 20 -5.5
v 0.5 21 -5.5
v 1.5 16 -5.5
v 1.5 20 -5.5
v -3.5 13 -6.5
v -3.5 16 -6.5
v -2.5 0 -6.5
v -2.5 1 -6.5
v -2.5 8 -6.5
v -2.5 9 -6.5
v -2.5 13 -6.5
v -1.5 1 -6.5
v -1.5 7 -6.5
v -1.5 8 -6.5
v -1.5 14 -6.5
v -1.5 16 -6.5
v 0.5 0 -6.5
v 0.5 7 -6.5
v 0.5 14 -6.5
v 0.5 16 -6.5
v 1.5 7 -6.5
v 1.5 9 -6.5
v 1.5 13 -6.5
v 1.5 16 -6.5
v -0.5 14 -10.5
v -0.5 16 -10.5
v 0.5 14 -10.5
v 0.5 16 -10.5
v -6.5 14 -11.5
v -6.5 15 -11.5
v -4.5 15 -11.5
v -4.5 16 -11.5
v -0.5 14 -11.5
v -0.5 16 -11.5
v -2.5 0 -0.5
v 0.5 0 -0.5
v -2.5 0 -2.5
v 0.5 0 -2.5
v -2.5 0 -4.5
v 0.5 0 -4.5
v -2.5 0 -6.5
v 0.5 0 -6.5
v 0.5 7 -0.5
v 1.5 7 -0.5
v -1.5 7 -2.5
v 0.5 7 -2.5
v -1.5 7 -4.5
v 0.5 7 -4.5
v 0.5 7 -6.5
v 1.5 7 -6.5
v -2.5 8 -0.5
v -1.5 8 -0.5
v -2.5 8 -6.5
v -1.5 8 -6.5
v -3.5 13 -0.5
v -2.5 13 -0.5
v -3.5 13 -6.5
v -2.5 13 -6.5
v -6.5 14 4.5
v 0.5 14 4.5
v -6.5 14 2.5
v -1.5 14 2.5
v -1.5 14 -0.5
v 0.5 14 -0.5
v -1.5 14 -6.5
v 0.5 14 -6.5
v -6.5 14 -9.5
v -1.5 14 -9.5
v -0.5 14 -10.5
v 0.5 14 -10.5
v -6.5 14 -11.5
v -0.5 14 -11.5
v -2.5 17 -1.5
v -1.5 17 -1.5
v -0.5 17 -1.5
v -1.5 17 -2.5
v -0.5 17 -2.5
v -1.5 17 -4.5
v -0.5 17 -4.5
v -2.5 17 -5.5
v -1.5 17 -5.5
v -0.5 17 -5.5
v -2.5 1 -0.5
v -1.5 1 -0.5
v -2.5 1 -2.5
v -1.5 1 -2.5
v -2.5 1 -4.5
v -1.5 1 -4.5
v -2.5 1 -6.5
v -1.5 1 -6.5
v -6.5 15 4.5
v -4.5 15 4.5
v -6.5 15 2.5
v -4.5 15 2.5
v -6.5 15 -9.5
v -4.5 15 -9.5
v -6.5 15 -11.5
v -4.5 15 -11.5
v -4.5 16 4.5
v 0.5 16 4.5
v -4.5 16 2.5
v -1.5 16 2.5
v -3.5 16 -0.5
v -1.5 16 -0.5
v 0.5 16 -0.5
v 1.5 16 -0.5
v -1.5 16 -1.5
v -0.5 16 -1.5
v 1.5 16 -1.5
v -2.5 16 -2.5
v -1.5 16 -2.5
v -0.5 16 -2.5
v -2.5 16 -4.5
v -1.5 16 -4.5
v -0.5 16 -4.5
v -1.5 16 -5.5
v -0.5 16 -5.5
v 1.5 16 -5.5
v -3.5 16 -6.5
v -1.5 16 -6.5
v 0.5 16 -6.5
v 1.5 16 -6.5
v -4.5 16 -9.5
v -1.5 16 -9.5
v -0.5 16 -10.5
v 0.5 16 -10.5
v -4.5 16 -11.5
v -0.5 16 -11.5
v -2.5 20 -1.5
v -1.5 20 -1.5
v 0.5 20 -1.5
v 1.5 20 -1.5
v -2.5 20 -2.5
v -1.5 20 -2.5
v 0.5 20 -2.5
v 1.5 20 -2.5
v -2.5 20 -4.5
v -1.5 20 -4.5
v 0.5 20 -4.5
v 1.5 20 -4.5
v -2.5 20 -5.5
v -1.5 20 -5.5
v 0.5 20 -5.5
v 1.5 20 -5.5
v -1.5 21 -1.5
v 0.5 21 -1.5
v -2.5 21 -2.5
v -1.5 21 -2.5
v 0.5 21 -2.5
v 1.5 21 -2.5
v -2.5 21 -4.5
v -1.5 21 -4.5
v 0.5 21 -4.5
v 1.5 21 -4.5
v -1.5 21 -5.5
v 0.5 21 -5.5

# faces
f 5/1/1 2/1/1 1/1/1
f 6/1/1 2/1/1 5/1/1
f 7/1/1 4/1/1 3/1/1
f 8/1/1 4/1/1 7/1/1
f 13/1/1 10/1/1 9/1/1
f 14/1/1 10/1/1 13/1/1
f 15/1/1 12/1/1 11/1/1
f 16/1/1 12/1/1 15/1/1
f 19/3/1 18/3/1 17/3/1
f 20/3/1 18/3/1 19/3/1
f 25/1/1 22/1/1 21/1/1
f 26/1/1 22/1/1 25/1/1
f 27/1/1 24/1/1 23/1/1
f 28/1/1 24/1/1 27/1/1
f 31/4/1 30/4/1 29/4/1
f 32/4/1 30/4/1 31/4/1
f 33/1/1 32/1/1 31/1/1
f 34/1/1 32/1/1 33/1/1
f 37/1/1 36/1/1 35/1/1
f 38/1/1 36/1/1 37/1/1
f 39/1/1 36/1/1 38/1/1
f 40/1/1 36/1/1 39/1/1
f 41/2/1 39/2/1 38/2/1
f 42/2/1 39/2/1 41/2/1
f 47/1/1 44/1/1 43/1/1
f 48/1/1 44/1/1 47/1/1
f 49/1/1 46/1/1 45/1/1
f 50/1/1 46/1/1 49/1/1
f 51/4/1 48/4/1 47/4/1
f 51/4/1 49/4/1 48/4/1
f 51/4/1 50/4/1 49/4/1
f 52/4/1 50/4/1 51/4/1
f 57/1/1 54/1/1 53/1/1
f 58/1/1 54/1/1 57/1/1
f 61/1/1 56/1/1 55/1/1
f 62/1/1 56/1/1 61/1/1
f 63/1/1 60/1/1 59/1/1
f 64/1/1 60/1/1 63/1/1
f 69/2/1 66/2/1 65/2/1
f 70/2/1 66/2/1 69/2/1
f 71/2/1 68/2/1 67/2/1
f 72/2/1 68/2/1 71/2/1
f 77/2/1 74/2/1 73/2/1
f 78/2/1 74/2/1 77/2/1
f 79/2/1 76/2/1 75/2/1
f 80/2/1 76/2/1 79/2/1
f 81/1/2 82/1/2 83/1/2
f 83/1/2 82/1/2 84/1/2
f 85/1/2 86/1/2 89/1/2
f 89/1/2 86/1/2 90/1/2
f 87/1/2 88/1/2 91/1/2
f 91/1/2 88/1/2 92/1/2
f 93/1/2 94/1/2 97/1/2
f 97/1/2 94/1/2 98/1/2
f 95/1/2 96/1/2 99/1/2
f 99/1/2 96/1/2 100/1/2
f 101/2/2 102/2/2 105/2/2
f 105/2/2 102/2/2 106/2/2
f 103/2/2 104/2/2 107/2/2
f 107/2/2 104/2/2 108/2/2
f 109/4/2 110/4/2 111/4/2
f 111/4/2 110/4/2 112/4/2
f 111/1/2 112/1/2 113/1/2
f 113/1/2 112/1/2 114/1/2
f 113/3/2 114/3/2 115/3/2
f 115/3/2 114/3/2 116/3/2
f 113/3/2 115/3/2 117/3/2
f 115/2/2 116/2/2 118/2/2
f 117/3/2 115/3/2 118/3/2
f 116/3/2 114/3/2 119/3/2
f 118/2/2 116/2/2 119/2/2
f 119/3/2 114/3/2 120/3/2
f 113/3/2 117/3/2 121/3/2
f 117/2/2 118/2/2 122/2/2
f 121/3/2 117/3/2 122/3/2
f 118/2/2 119/2/2 122/2/2
f 119/2/2 120/2/2 122/2/2
f 120/3/2 114/3/2 123/3/2
f 122/2/2 120/2/2 123/2/2
f 123/3/2 114/3/2 124/3/2
f 122/2/2 123/2/2 125/2/2
f 125/2/2 123/2/2 126/2/2
f 126/2/2 123/2/2 127/2/2
f 127/2/2 123/2/2 128/2/2
f 126/2/2 127/2/2 129/2/2
f 129/2/2 127/2/2 130/2/2
f 133/1/3 132/1/3 131/1/3
f 135/1/3 133/1/3 131/1/3
f 135/1/3 134/1/3 133/1/3
f 136/1/3 134/1/3 135/1/3
f 143/3/3 138/3/3 137/3/3
f 144/1/3 140/1/3 139/1/3
f 146/4/3 142/4/3 141/4/3
f 147/3/3 138/3/3 143/3/3
f 148/3/3 138/3/3 147/3/3
f 149/1/3 145/1/3 144/1/3
f 149/1/3 144/1/3 139/1/3
f 150/4/3 146/4/3 145/4/3
f 150/1/3 145/1/3 149/1/3
f 151/3/3 147/3/3 143/3/3
f 153/4/3 146/4/3 150/4/3
f 154/1/3 143/1/3 142/1/3
f 154/4/3 146/4/3 153/4/3
f 154/4/3 142/4/3 146/4/3
f 155/3/3 152/3/3 151/3/3
f 155/1/3 143/1/3 154/1/3
f 155/3/3 151/3/3 143/3/3
f 156/3/3 152/3/3 155/3/3
f 159/1/3 158/1/3 157/1/3
f 160/1/3 158/1/3 159/1/3
f 163/2/3 160/2/3 159/2/3
f 163/2/3 161/2/3 160/2/3
f 164/2/3 161/2/3 163/2/3
f 164/2/3 163/2/3 162/2/3
f 165/2/3 161/2/3 164/2/3
f 166/2/3 164/2/3 162/2/3
f 167/2/3 164/2/3 166/2/3
f 172/2/3 169/2/3 168/2/3
f 173/2/3 169/2/3 172/2/3
f 174/1/3 171/1/3 170/1/3
f 175/1/3 171/1/3 174/1/3
f 178/2/3 177/2/3 176/2/3
f 179/2/3 177/2/3 178/2/3
f 182/1/3 181/1/3 180/1/3
f 184/1/3 182/1/3 180/1/3
f 184/1/3 183/1/3 182/1/3
f 185/1/3 183/1/3 184/1/3
f 188/1/3 187/1/3 186/1/3
f 190/1/3 188/1/3 186/1/3
f 190/1/3 189/1/3 188/1/3
f 191/1/3 189/1/3 190/1/3
f 192/1/4 193/1/4 194/1/4
f 192/1/4 194/1/4 196/1/4
f 194/1/4 195/1/4 196/1/4
f 196/1/4 195/1/4 197/1/4
f 198/1/4 199/1/4 200/1/4
f 198/1/4 200/1/4 202/1/4
f 200/1/4 201/1/4 202/1/4
f 202/1/4 201/1/4 203/1/4
f 204/2/4 205/2/4 208/2/4
f 208/2/4 205/2/4 209/2/4
f 206/1/4 207/1/4 210/1/4
f 210/1/4 207/1/4 211/1/4
f 212/2/4 213/2/4 214/2/4
f 214/2/4 213/2/4 215/2/4
f 216/1/4 217/1/4 218/1/4
f 218/1/4 217/1/4 219/1/4
f 218/2/4 219/2/4 222/2/4
f 219/2/4 220/2/4 222/2/4
f 222/2/4 220/2/4 223/2/4
f 221/2/4 222/2/4 223/2/4
f 223/2/4 220/2/4 224/2/4
f 221/2/4 223/2/4 225/2/4
f 225/2/4 223/2/4 226/2/4
f 227/3/4 228/3/4 233/3/4
f 229/1/4 230/1/4 234/1/4
f 231/4/4 232/4/4 236/4/4
f 233/3/4 228/3/4 237/3/4
f 237/3/4 228/3/4 238/3/4
f 234/1/4 235/1/4 239/1/4
f 229/1/4 234/1/4 239/1/4
f 235/4/4 236/4/4 240/4/4
f 239/1/4 235/1/4 240/1/4
f 233/3/4 237/3/4 241/3/4
f 240/4/4 236/4/4 243/4/4
f 232/1/4 233/1/4 244/1/4
f 243/4/4 236/4/4 244/4/4
f 236/4/4 232/4/4 244/4/4
f 241/3/4 242/3/4 245/3/4
f 244/1/4 233/1/4 245/1/4
f 233/3/4 241/3/4 245/3/4
f 245/3/4 242/3/4 246/3/4
f 247/1/4 248/1/4 249/1/4
f 249/1/4 248/1/4 250/1/4
f 251/1/4 252/1/4 253/1/4
f 251/1/4 253/1/4 255/1/4
f 253/1/4 254/1/4 255/1/4
f 255/1/4 254/1/4 256/1/4
f 259/1/5 258/1/5 257/1/5
f 260/1/5 258/1/5 259/1/5
f 263/1/5 262/1/5 261/1/5
f 264/1/5 262/1/5 263/1/5
f 268/4/5 266/4/5 265/4/5
f 269/4/5 268/4/5 267/4/5
f 270/4/5 266/4/5 268/4/5
f 270/4/5 268/4/5 269/4/5
f 271/4/5 266/4/5 270/4/5
f 272/4/5 266/4/5 271/4/5
f 275/4/5 274/4/5 273/4/5
f 276/4/5 274/4/5 275/4/5
f 279/3/5 278/3/5 277/3/5
f 280/3/5 278/3/5 279/3/5
f 283/1/5 282/1/5 281/1/5
f 284/1/5 282/1/5 283/1/5
f 285/1/5 282/1/5 284/1/5
f 286/1/5 282/1/5 285/1/5
f 290/1/5 288/1/5 287/1/5
f 291/1/5 288/1/5 290/1/5
f 291/1/5 290/1/5 289/1/5
f 292/1/5 288/1/5 291/1/5
f 293/1/5 291/1/5 289/1/5
f 294/1/5 291/1/5 293/1/5
f 298/1/5 296/1/5 295/1/5
f 298/2/5 297/2/5 296/2/5
f 299/2/5 297/2/5 298/2/5
f 300/1/5 298/1/5 295/1/5
f 302/1/5 300/1/5 295/1/5
f 303/2/5 301/2/5 300/2/5
f 303/1/5 300/1/5 302/1/5
f 304/2/5 301/2/5 303/2/5
f 305/1/6 306/1/6 307/1/6
f 307/1/6 306/1/6 308/1/6
f 309/1/6 310/1/6 311/1/6
f 311/1/6 310/1/6 312/1/6
f 313/1/6 314/1/6 315/1/6
f 315/1/6 314/1/6 316/1/6
f 317/1/6 318/1/6 319/1/6
f 319/1/6 318/1/6 320/1/6
f 321/1/6 322/1/6 323/1/6
f 323/1/6 322/1/6 324/1/6
f 324/1/6 322/1/6 326/1/6
f 326/1/6 322/1/6 327/1/6
f 325/3/6 326/3/6 329/3/6
f 327/3/6 328/3/6 329/3/6
f 326/3/6 327/3/6 329/3/6
f 329/3/6 328/3/6 330/3/6
f 330/3/6 328/3/6 331/3/6
f 325/3/6 329/3/6 332/3/6
f 329/1/6 330/1/6 333/1/6
f 332/3/6 329/3/6 333/3/6
f 333/1/6 330/1/6 334/1/6
f 325/3/6 332/3/6 335/3/6
f 332/1/6 333/1/6 335/1/6
f 335/1/6 333/1/6 336/1/6
f 335/3/6 336/3/6 338/3/6
f 336/1/6 337/1/6 338/1/6
f 338/1/6 337/1/6 339/1/6
f 338/3/6 339/3/6 341/3/6
f 339/3/6 340/3/6 341/3/6
f 335/3/6 338/3/6 341/3/6
f 325/3/6 335/3/6 341/3/6
f 341/3/6 340/3/6 342/3/6
f 342/3/6 340/3/6 343/3/6
f 343/3/6 340/3/6 344/3/6
f 342/1/6 343/1/6 346/1/6
f 346/1/6 343/1/6 347/1/6
f 345/1/6 346/1/6 347/1/6
f 347/1/6 343/1/6 348/1/6
f 345/1/6 347/1/6 349/1/6
f 349/1/6 347/1/6 350/1/6
f 351/1/6 352/1/6 355/1/6
f 355/1/6 352/1/6 356/1/6
f 353/2/6 354/2/6 357/2/6
f 357/2/6 354/2/6 358/2/6
f 359/1/6 360/1/6 363/1/6
f 363/1/6 360/1/6 364/1/6
f 361/2/6 362/2/6 365/2/6
f 365/2/6 362/2/6 366/2/6
f 367/2/6 368/2/6 370/2/6
f 370/2/6 368/2/6 371/2/6
f 369/2/6 370/2/6 373/2/6
f 371/2/6 372/2/6 373/2/6
f 370/2/6 371/2/6 373/2/6
f 373/2/6 372/2/6 374/2/6
f 374/2/6 372/2/6 375/2/6
f 375/2/6 372/2/6 376/2/6
f 374/2/6 375/2/6 377/2/6
f 377/2/6 375/2/6 378/2/6
