# MagicaVoxel @ ephtracy

# material
mtllib akka2.mtl
usemtl palette

# normals
vn -1 0 0
vn 1 0 0
vn 0 0 1
vn 0 0 -1
vn 0 -1 0
vn 0 1 0

# texcoords
vt 0.0332031 0.5
vt 0.111328 0.5
vt 0.134766 0.5
vt 0.873047 0.5
vt 0.900391 0.5

# verts
v -6.5 14 4.5
v -6.5 14 2.5
v -6.5 14 -9.5
v -6.5 14 -11.5
v -6.5 15 4.5
v -6.5 15 2.5
v -6.5 15 -9.5
v -6.5 15 -11.5
v -4.5 15 4.5
v -4.5 15 2.5
v -4.5 15 -9.5
v -4.5 15 -11.5
v -4.5 16 4.5
v -4.5 16 2.5
v -4.5 16 -9.5
v -4.5 16 -11.5
v -3.5 13 -0.5
v -3.5 13 -6.5
v -3.5 16 -0.5
v -3.5 16 -6.5
v -2.5 0 -0.5
v -2.5 0 -2.5
v -2.5 0 -4.5
v -2.5 0 -6.5
v -2.5 1 -0.5
v -2.5 1 -2.5
v -2.5 1 -4.5
v -2.5 1 -6.5
v -2.5 8 -0.5
v -2.5 8 -6.5
v -2.5 9 -0.5
v -2.5 9 -6.5
v -2.5 13 -0.5
v -2.5 13 -6.5
v -2.5 17 -1.5
v -2.5 17 -5.5
v -2.5 20 -1.5
v -2.5 20 -2.5
v -2.5 20 -4.5
v -2.5 20 -5.5
v -2.5 21 -2.5
v -2.5 21 -4.5
v -1.5 1 -0.5
v -1.5 1 -2.5
v -1.5 1 -4.5
v -1.5 1 -6.5
v -1.5 7 -0.5
v -1.5 7 -2.5
v -1.5 7 -4.5
v -1.5 7 -6.5
v -1.5 8 -0.5
v -1.5 8 -6.5
v -1.5 14 2.5
v -1.5 14 -0.5
v -1.5 14 -6.5
v -1.5 14 -9.5
v -1.5 15 -0.5
v -1.5 16 2.5
v -1.5 16 -0.5
v -1.5 16 -2.5
v -1.5 16 -4.5
v -1.5 16 -6.5
v -1.5 16 -9.5
v -1.5 17 -2.5
v -1.5 17 -4.5
v -1.5 20 -1.5
v -1.5 20 -2.5
v -1.5 20 -4.5
v -1.5 20 -5.5
v -1.5 21 -1.5
v -1.5 21 -2.5
v -1.5 21 -4.5
v -1.5 21 -5.5
v -0.5 16 -1.5
v -0.5 16 -2.5
v -0.5 16 -4.5
v -0.5 16 -5.5
v -0.5 17 -1.5
v -0.5 17 -2.5
v -0.5 17 -4.5
v -0.5 17 -5.5
v -0.5 14 -10.5
v -0.5 14 -11.5
v -0.5 16 -10.5
v -0.5 16 -11.5
v 0.5 0 -0.5
v 0.5 0 -2.5
v 0.5 0 -4.5
v 0.5 0 -6.5
v 0.5 7 -0.5
v 0.5 7 -2.5
v 0.5 7 -4.5
v 0.5 7 -6.5
v 0.5 14 4.5
v 0.5 14 -0.5
v 0.5 14 -6.5
v 0.5 14 -10.5
v 0.5 16 4.5
v 0.5 16 -0.5
v 0.5 16 -6.5
v 0.5 16 -10.5
v 0.5 20 -1.5
v 0.5 20 -2.5
v 0.5 20 -4.5
v 0.5 20 -5.5
v 0.5 21 -1.5
v 0.5 21 -2.5
v 0.5 21 -4.5
v 0.5 21 -5.5
v 1.5 7 -0.5
v 1.5 7 -6.5
v 1.5 9 -0.5
v 1.5 9 -6.5
v 1.5 13 -0.5
v 1.5 13 -6.5
v 1.5 14 -2.5
v 1.5 14 -4.5
v 1.5 15 -1.5
v 1.5 15 -2.5
v 1.5 15 -4.5
v 1.5 15 -5.5
v 1.5 16 -0.5
v 1.5 16 -1.5
v 1.5 16 -5.5
v 1.5 16 -6.5
v 1.5 20 -1.5
v 1.5 20 -2.5
v 1.5 20 -4.5
v 1.5 20 -5.5
v 1.5 21 -2.5
v 1.5 21 -4.5
v -6.5 14 4.5
v -6.5 15 4.5
v -4.5 15 4.5
v -4.5 16 4.5
v 0.5 14 4.5
v 0.5 16 4.5
v -3.5 13 -0.5
v -3.5 16 -0.5
v -2.5 0 -0.5
v -2.5 1 -0.5
v -2.5 8 -0.5
v -2.5 9 -0.5
v -2.5 13 -0.5
v -2.5 14 -0.5
v -2.5 15 -0.5
v -1.5 1 -0.5
v -1.5 7 -0.5
v -1.5 8 -0.5
v -1.5 14 -0.5
v -1.5 15 -0.5
v -1.5 16 -0.5
v 0.5 0 -0.5
v 0.5 7 -0.5
v 0.5 14 -0.5
v 0.5 16 -0.5
v 1.5 7 -0.5
v 1.5 9 -0.5
v 1.5 13 -0.5
v 1.5 16 -0.5
v -2.5 17 -1.5
v -2.5 20 -1.5
v -1.5 17 -1.5
v -1.5 20 -1.5
v -1.5 21 -1.5
v -0.5 16 -1.5
v -0.5 17 -1.5
v 0.5 20 -1.5
v 0.5 21 -1.5
v 1.5 16 -1.5
v 1.5 20 -1.5
v -2.5 20 -2.5
v -2.5 21 -2.5
v -1.5 16 -2.5
v -1.5 17 -2.5
v -1.5 20 -2.5
v -1.5 21 -2.5
v -0.5 16 -2.5
v -0.5 17 -2.5
v 0.5 20 -2.5
v 0.5 21 -2.5
v 1.5 20 -2.5
v 1.5 21 -2.5
v -2.5 0 -4.5
v -2.5 1 -4.5
v -1.5 1 -4.5
v -1.5 7 -4.5
v 0.5 0 -4.5
v 0.5 7 -4.5
v -6.5 14 -9.5
v -6.5 15 -9.5
v -4.5 15 -9.5
v -4.5 16 -9.5
v -1.5 14 -9.5
v -1.5 16 -9.5
v -6.5 14 2.5
v -6.5 15 2.5
v -4.5 15 2.5
v -4.5 16 2.5
v -1.5 14 2.5
v -1.5 16 2.5
v -2.5 0 -2.5
v -2.5 1 -2.5
v -1.5 1 -2.5
v -1.5 7 -2.5
v 0.5 0 -2.5
v 0.5 7 -2.5
v -2.5 20 -4.5
v -2.5 21 -4.5
v -1.5 16 -4.5
v -1.5 17 -4.5
v -1.5 20 -4.5
v -1.5 21 -4.5
v -0.5 16 -4.5
v -0.5 17 -4.5
v 0.5 20 -4.5
v 0.5 21 -4.5
v 1.5 20 -4.5
v 1.5 21 -4.5
v -2.5 17 -5.5
v -2.5 20 -5.5
v -1.5 17 -5.5
v -1.5 20 -5.5
v -1.5 21 -5.5
v -0.5 16 -5.5
v -0.5 17 -5.5
v 0.5 20 -5.5
v 0.5 21 -5.5
v 1.5 16 -5.5
v 1.5 20 -5.5
v -3.5 13 -6.5
v -3.5 16 -6.5
v -2.5 0 -6.5
v -2.5 1 -6.5
v -2.5 8 -6.5
v -2.5 9 -6.5
v -2.5 13 -6.5
v -1.5 1 -6.5
v -1.5 7 -6.5
v -1.5 8 -6.5
v -1.5 14 -6.5
v -1.5 16 -6.5
v 0.5 0 -6.5
v 0.5 7 -6.5
v 0.5 14 -6.5
v 0.5 16 -6.5
v 1.5 7 -6.5
v 1.5 9 -6.5
v 1.5 13 -6.5
v 1.5 16 -6.5
v -0.5 14 -10.5
v -0.5 16 -10.5
v 0.5 14 -10.5
v 0.5 16 -10.5
v -6.5 14 -11.5
v -6.5 15 -11.5
v -4.5 15 -11.5
v -4.5 16 -11.5
v -0.5 14 -11.5
v -0.5 16 -11.5
v -2.5 0 -0.5
v 0.5 0 -0.5
v -2.5 0 -2.5
v 0.5 0 -2.5
v -2.5 0 -4.5
v 0.5 0 -4.5
v -2.5 0 -6.5
v 0.5 0 -6.5
v 0.5 7 -0.5
v 1.5 7 -0.5
v -1.5 7 -2.5
v 0.5 7 -2.5
v -1.5 7 -4.5
v 0.5 7 -4.5
v 0.5 7 -6.5
v 1.5 7 -6.5
v -2.5 8 -0.5
v -1.5 8 -0.5
v -2.5 8 -6.5
v -1.5 8 -6.5
v -3.5 13 -0.5
v -2.5 13 -0.5
v -3.5 13 -6.5
v -2.5 13 -6.5
v -6.5 14 4.5
v 0.5 14 4.5
v -6.5 14 2.5
v -1.5 14 2.5
v -1.5 14 -0.5
v 0.5 14 -0.5
v -1.5 14 -6.5
v 0.5 14 -6.5
v -6.5 14 -9.5
v -1.5 14 -9.5
v -0.5 14 -10.5
v 0.5 14 -10.5
v -6.5 14 -11.5
v -0.5 14 -11.5
v -2.5 17 -1.5
v -1.5 17 -1.5
v -0.5 17 -1.5
v -1.5 17 -2.5
v -0.5 17 -2.5
v -1.5 17 -4.5
v -0.5 17 -4.5
v -2.5 17 -5.5
v -1.5 17 -5.5
v -0.5 17 -5.5
v -2.5 1 -0.5
v -1.5 1 -0.5
v -2.5 1 -2.5
v -1.5 1 -2.5
v -2.5 1 -4.5
v -1.5 1 -4.5
v -2.5 1 -6.5
v -1.5 1 -6.5
v -6.5 15 4.5
v -4.5 15 4.5
v -6.5 15 2.5
v -4.5 15 2.5
v -6.5 15 -9.5
v -4.5 15 -9.5
v -6.5 15 -11.5
v -4.5 15 -11.5
v -4.5 16 4.5
v 0.5 16 4.5
v -4.5 16 2.5
v -1.5 16 2.5
v -3.5 16 -0.5
v -1.5 16 -0.5
v 0.5 16 -0.5
v 1.5 16 -0.5
v -1.5 16 -1.5
v -0.5 16 -1.5
v 1.5 16 -1.5
v -2.5 16 -2.5
v -1.5 16 -2.5
v -0.5 16 -2.5
v -2.5 16 -4.5
v -1.5 16 -4.5
v -0.5 16 -4.5
v -1.5 16 -5.5
v -0.5 16 -5.5
v 1.5 16 -5.5
v -3.5 16 -6.5
v -1.5 16 -6.5
v 0.5 16 -6.5
v 1.5 16 -6.5
v -4.5 16 -9.5
v -1.5 16 -9.5
v -0.5 16 -10.5
v 0.5 16 -10.5
v -4.5 16 -11.5
v -0.5 16 -11.5
v -2.5 20 -1.5
v -1.5 20 -1.5
v 0.5 20 -1.5
v 1.5 20 -1.5
v -2.5 20 -2.5
v -1.5 20 -2.5
v 0.5 20 -2.5
v 1.5 20 -2.5
v -2.5 20 -4.5
v -1.5 20 -4.5
v 0.5 20 -4.5
v 1.5 20 -4.5
v -2.5 20 -5.5
v -1.5 20 -5.5
v 0.5 20 -5.5
v 1.5 20 -5.5
v -1.5 21 -1.5
v 0.5 21 -1.5
v -2.5 21 -2.5
v -1.5 21 -2.5
v 0.5 21 -2.5
v 1.5 21 -2.5
v -2.5 21 -4.5
v -1.5 21 -4.5
v 0.5 21 -4.5
v 1.5 21 -4.5
v -1.5 21 -5.5
v 0.5 21 -5.5

# faces
f 5/1/1 2/1/1 1/1/1
f 6/1/1 2/1/1 5/1/1
f 7/1/1 4/1/1 3/1/1
f 8/1/1 4/1/1 7/1/1
f 13/1/1 10/1/1 9/1/1
f 14/1/1 10/1/1 13/1/1
f 15/1/1 12/1/1 11/1/1
f 16/1/1 12/1/1 15/1/1
f 19/5/1 18/5/1 17/5/1
f 20/5/1 18/5/1 19/5/1
f 25/1/1 22/1/1 21/1/1
f 26/1/1 22/1/1 25/1/1
f 27/1/1 24/1/1 23/1/1
f 28/1/1 24/1/1 27/1/1
f 31/5/1 30/5/1 29/5/1
f 32/5/1 30/5/1 31/5/1
f 33/1/1 32/1/1 31/1/1
f 34/1/1 32/1/1 33/1/1
f 37/1/1 36/1/1 35/1/1
f 38/1/1 36/1/1 37/1/1
f 39/1/1 36/1/1 38/1/1
f 40/1/1 36/1/1 39/1/1
f 41/4/1 39/4/1 38/4/1
f 42/4/1 39/4/1 41/4/1
f 47/1/1 44/1/1 43/1/1
f 48/1/1 44/1/1 47/1/1
f 49/1/1 46/1/1 45/1/1
f 50/1/1 46/1/1 49/1/1
f 51/5/1 48/5/1 47/5/1
f 51/5/1 49/5/1 48/5/1
f 51/5/1 50/5/1 49/5/1
f 52/5/1 50/5/1 51/5/1
f 57/1/1 54/1/1 53/1/1
f 58/1/1 57/1/1 53/1/1
f 59/1/1 57/1/1 58/1/1
f 62/1/1 56/1/1 55/1/1
f 63/1/1 56/1/1 62/1/1
f 64/1/1 61/1/1 60/1/1
f 65/1/1 61/1/1 64/1/1
f 70/4/1 67/4/1 66/4/1
f 71/4/1 67/4/1 70/4/1
f 72/4/1 69/4/1 68/4/1
f 73/4/1 69/4/1 72/4/1
f 78/4/1 75/4/1 74/4/1
f 79/4/1 75/4/1 78/4/1
f 80/4/1 77/4/1 76/4/1
f 81/4/1 77/4/1 80/4/1
f 82/1/2 83/1/2 84/1/2
f 84/1/2 83/1/2 85/1/2
f 86/1/2 87/1/2 90/1/2
f 90/1/2 87/1/2 91/1/2
f 88/1/2 89/1/2 92/1/2
f 92/1/2 89/1/2 93/1/2
f 94/1/2 95/1/2 98/1/2
f 98/1/2 95/1/2 99/1/2
f 96/1/2 97/1/2 100/1/2
f 100/1/2 97/1/2 101/1/2
f 102/4/2 103/4/2 106/4/2
f 106/4/2 103/4/2 107/4/2
f 104/4/2 105/4/2 108/4/2
f 108/4/2 105/4/2 109/4/2
f 110/5/2 111/5/2 112/5/2
f 112/5/2 111/5/2 113/5/2
f 112/1/2 113/1/2 114/1/2
f 114/1/2 113/1/2 115/1/2
f 114/5/2 115/5/2 116/5/2
f 116/5/2 115/5/2 117/5/2
f 114/5/2 116/5/2 118/5/2
f 116/4/2 117/4/2 119/4/2
f 118/5/2 116/5/2 119/5/2
f 117/5/2 115/5/2 120/5/2
f 119/4/2 117/4/2 120/4/2
f 120/5/2 115/5/2 121/5/2
f 114/5/2 118/5/2 122/5/2
f 118/4/2 119/4/2 123/4/2
f 122/5/2 118/5/2 123/5/2
f 119/4/2 120/4/2 123/4/2
f 120/4/2 121/4/2 123/4/2
f 121/5/2 115/5/2 124/5/2
f 123/4/2 121/4/2 124/4/2
f 124/5/2 115/5/2 125/5/2
f 123/4/2 124/4/2 126/4/2
f 126/4/2 124/4/2 127/4/2
f 127/4/2 124/4/2 128/4/2
f 128/4/2 124/4/2 129/4/2
f 127/4/2 128/4/2 130/4/2
f 130/4/2 128/4/2 131/4/2
f 134/1/3 133/1/3 132/1/3
f 136/1/3 134/1/3 132/1/3
f 136/1/3 135/1/3 134/1/3
f 137/1/3 135/1/3 136/1/3
f 144/5/3 139/5/3 138/5/3
f 145/5/3 139/5/3 144/5/3
f 146/5/3 139/5/3 145/5/3
f 147/1/3 141/1/3 140/1/3
f 149/5/3 143/5/3 142/5/3
f 150/5/3 145/5/3 144/5/3
f 150/2/3 146/2/3 145/2/3
f 151/5/3 139/5/3 146/5/3
f 151/2/3 146/2/3 150/2/3
f 152/5/3 139/5/3 151/5/3
f 153/1/3 148/1/3 147/1/3
f 153/1/3 147/1/3 140/1/3
f 154/5/3 149/5/3 148/5/3
f 154/1/3 148/1/3 153/1/3
f 155/5/3 150/5/3 144/5/3
f 157/5/3 149/5/3 154/5/3
f 158/1/3 144/1/3 143/1/3
f 158/5/3 149/5/3 157/5/3
f 158/5/3 143/5/3 149/5/3
f 159/5/3 156/5/3 155/5/3
f 159/1/3 144/1/3 158/1/3
f 159/5/3 155/5/3 144/5/3
f 160/5/3 156/5/3 159/5/3
f 163/1/3 162/1/3 161/1/3
f 164/1/3 162/1/3 163/1/3
f 167/4/3 164/4/3 163/4/3
f 167/4/3 165/4/3 164/4/3
f 168/4/3 165/4/3 167/4/3
f 168/4/3 167/4/3 166/4/3
f 169/4/3 165/4/3 168/4/3
f 170/4/3 168/4/3 166/4/3
f 171/4/3 168/4/3 170/4/3
f 176/4/3 173/4/3 172/4/3
f 177/4/3 173/4/3 176/4/3
f 178/1/3 175/1/3 174/1/3
f 179/1/3 175/1/3 178/1/3
f 182/4/3 181/4/3 180/4/3
f 183/4/3 181/4/3 182/4/3
f 186/1/3 185/1/3 184/1/3
f 188/1/3 186/1/3 184/1/3
f 188/1/3 187/1/3 186/1/3
f 189/1/3 187/1/3 188/1/3
f 192/1/3 191/1/3 190/1/3
f 194/1/3 192/1/3 190/1/3
f 194/1/3 193/1/3 192/1/3
f 195/1/3 193/1/3 194/1/3
f 196/1/4 197/1/4 198/1/4
f 196/1/4 198/1/4 200/1/4
f 198/1/4 199/1/4 200/1/4
f 200/1/4 199/1/4 201/1/4
f 202/1/4 203/1/4 204/1/4
f 202/1/4 204/1/4 206/1/4
f 204/1/4 205/1/4 206/1/4
f 206/1/4 205/1/4 207/1/4
f 208/4/4 209/4/4 212/4/4
f 212/4/4 209/4/4 213/4/4
f 210/1/4 211/1/4 214/1/4
f 214/1/4 211/1/4 215/1/4
f 216/4/4 217/4/4 218/4/4
f 218/4/4 217/4/4 219/4/4
f 220/1/4 221/1/4 222/1/4
f 222/1/4 221/1/4 223/1/4
f 222/4/4 223/4/4 226/4/4
f 223/4/4 224/4/4 226/4/4
f 226/4/4 224/4/4 227/4/4
f 225/4/4 226/4/4 227/4/4
f 227/4/4 224/4/4 228/4/4
f 225/4/4 227/4/4 229/4/4
f 229/4/4 227/4/4 230/4/4
f 231/5/4 232/5/4 237/5/4
f 233/1/4 234/1/4 238/1/4
f 235/5/4 236/5/4 240/5/4
f 237/5/4 232/5/4 241/5/4
f 241/5/4 232/5/4 242/5/4
f 238/1/4 239/1/4 243/1/4
f 233/1/4 238/1/4 243/1/4
f 239/5/4 240/5/4 244/5/4
f 243/1/4 239/1/4 244/1/4
f 237/5/4 241/5/4 245/5/4
f 244/5/4 240/5/4 247/5/4
f 236/1/4 237/1/4 248/1/4
f 247/5/4 240/5/4 248/5/4
f 240/5/4 236/5/4 248/5/4
f 245/5/4 246/5/4 249/5/4
f 248/1/4 237/1/4 249/1/4
f 237/5/4 245/5/4 249/5/4
f 249/5/4 246/5/4 250/5/4
f 251/1/4 252/1/4 253/1/4
f 253/1/4 252/1/4 254/1/4
f 255/1/4 256/1/4 257/1/4
f 255/1/4 257/1/4 259/1/4
f 257/1/4 258/1/4 259/1/4
f 259/1/4 258/1/4 260/1/4
f 263/1/5 262/1/5 261/1/5
f 264/1/5 262/1/5 263/1/5
f 267/1/5 266/1/5 265/1/5
f 268/1/5 266/1/5 267/1/5
f 272/5/5 270/5/5 269/5/5
f 273/5/5 272/5/5 271/5/5
f 274/5/5 270/5/5 272/5/5
f 274/5/5 272/5/5 273/5/5
f 275/5/5 270/5/5 274/5/5
f 276/5/5 270/5/5 275/5/5
f 279/5/5 278/5/5 277/5/5
f 280/5/5 278/5/5 279/5/5
f 283/5/5 282/5/5 281/5/5
f 284/5/5 282/5/5 283/5/5
f 287/1/5 286/1/5 285/1/5
f 288/1/5 286/1/5 287/1/5
f 289/1/5 286/1/5 288/1/5
f 290/1/5 286/1/5 289/1/5
f 294/1/5 292/1/5 291/1/5
f 295/1/5 292/1/5 294/1/5
f 295/1/5 294/1/5 293/1/5
f 296/1/5 292/1/5 295/1/5
f 297/1/5 295/1/5 293/1/5
f 298/1/5 295/1/5 297/1/5
f 302/1/5 300/1/5 299/1/5
f 302/4/5 301/4/5 300/4/5
f 303/4/5 301/4/5 302/4/5
f 304/1/5 302/1/5 299/1/5
f 306/1/5 304/1/5 299/1/5
f 307/4/5 305/4/5 304/4/5
f 307/1/5 304/1/5 306/1/5
f 308/4/5 305/4/5 307/4/5
f 309/1/6 310/1/6 311/1/6
f 311/1/6 310/1/6 312/1/6
f 313/1/6 314/1/6 315/1/6
f 315/1/6 314/1/6 316/1/6
f 317/1/6 318/1/6 319/1/6
f 319/1/6 318/1/6 320/1/6
f 321/1/6 322/1/6 323/1/6
f 323/1/6 322/1/6 324/1/6
f 325/1/6 326/1/6 327/1/6
f 327/1/6 326/1/6 328/1/6
f 328/1/6 326/1/6 330/1/6
f 330/1/6 326/1/6 331/1/6
f 329/5/6 330/5/6 333/5/6
f 331/5/6 332/5/6 333/5/6
f 330/5/6 331/5/6 333/5/6
f 333/5/6 332/5/6 334/5/6
f 334/5/6 332/5/6 335/5/6
f 329/5/6 333/5/6 336/5/6
f 333/1/6 334/1/6 337/1/6
f 336/5/6 333/5/6 337/5/6
f 337/1/6 334/1/6 338/1/6
f 329/5/6 336/5/6 339/5/6
f 336/1/6 337/1/6 339/1/6
f 339/1/6 337/1/6 340/1/6
f 339/5/6 340/5/6 342/5/6
f 340/1/6 341/1/6 342/1/6
f 342/1/6 341/1/6 343/1/6
f 342/5/6 343/5/6 345/5/6
f 343/5/6 344/5/6 345/5/6
f 339/5/6 342/5/6 345/5/6
f 329/5/6 339/5/6 345/5/6
f 345/5/6 344/5/6 346/5/6
f 346/5/6 344/5/6 347/5/6
f 347/5/6 344/5/6 348/5/6
f 346/1/6 347/1/6 350/1/6
f 350/1/6 347/1/6 351/1/6
f 349/1/6 350/1/6 351/1/6
f 351/1/6 347/1/6 352/1/6
f 349/1/6 351/1/6 353/1/6
f 353/1/6 351/1/6 354/1/6
f 355/1/6 356/1/6 359/1/6
f 359/1/6 356/1/6 360/1/6
f 357/4/6 358/4/6 361/4/6
f 361/4/6 358/4/6 362/4/6
f 363/1/6 364/1/6 367/1/6
f 367/1/6 364/1/6 368/1/6
f 365/4/6 366/4/6 369/4/6
f 369/4/6 366/4/6 370/4/6
f 371/4/6 372/4/6 374/4/6
f 374/4/6 372/4/6 375/4/6
f 373/4/6 374/4/6 377/4/6
f 375/4/6 376/4/6 377/4/6
f 374/4/6 375/4/6 377/4/6
f 377/4/6 376/4/6 378/4/6
f 378/4/6 376/4/6 379/4/6
f 379/4/6 376/4/6 380/4/6
f 378/4/6 379/4/6 381/4/6
f 381/4/6 379/4/6 382/4/6
