# MagicaVoxel @ ephtracy

# material
mtllib huvipursi.mtl
usemtl palette

# normals
vn -1 0 0
vn 1 0 0
vn 0 0 1
vn 0 0 -1
vn 0 -1 0
vn 0 1 0

# texcoords
vt 0.0449219 0.5
vt 0.306641 0.5
vt 0.955078 0.5
vt 0.958984 0.5
vt 0.962891 0.5
vt 0.966797 0.5
vt 0.982422 0.5

# verts
v -1.5 1 10.5
v -1.5 1 -9.5
v -1.5 3 9.5
v -1.5 3 -8.5
v -1.5 4 9.5
v -1.5 4 -8.5
v -1.5 5 10.5
v -1.5 5 -9.5
v -0.5 0 12.5
v -0.5 0 -10.5
v -0.5 1 10.5
v -0.5 1 -9.5
v -0.5 5 12.5
v -0.5 5 10.5
v -0.5 5 4.5
v -0.5 5 -5.5
v -0.5 5 -9.5
v -0.5 5 -10.5
v -0.5 7 4.5
v -0.5 7 2.5
v -0.5 7 1.5
v -0.5 7 -4.5
v -0.5 9 4.5
v -0.5 9 2.5
v -0.5 9 1.5
v -0.5 9 -4.5
v -0.5 9 -5.5
v -0.5 10 4.5
v -0.5 10 -5.5
v -0.5 11 4.5
v -0.5 11 2.5
v -0.5 11 -5.5
v -0.5 12 4.5
v -0.5 12 2.5
v 0.5 0 13.5
v 0.5 0 12.5
v 0.5 0 -11.5
v 0.5 0 -13.5
v 0.5 4 7.5
v 0.5 4 4.5
v 0.5 4 -11.5
v 0.5 4 -13.5
v 0.5 5 13.5
v 0.5 5 12.5
v 0.5 6 7.5
v 0.5 6 4.5
v 1.5 0 14.5
v 1.5 0 13.5
v 1.5 0 -10.5
v 1.5 0 -11.5
v 1.5 1 15.5
v 1.5 1 14.5
v 1.5 4 -11.5
v 1.5 4 -13.5
v 1.5 5 15.5
v 1.5 5 14.5
v 1.5 5 13.5
v 1.5 5 -10.5
v 1.5 5 -13.5
v 4.5 4 11.5
v 4.5 4 9.5
v 4.5 5 11.5
v 4.5 5 9.5
v 4.5 11 3.5
v 4.5 11 2.5
v 4.5 12 3.5
v 4.5 12 2.5
v 5.5 4 9.5
v 5.5 4 4.5
v 5.5 4 -5.5
v 5.5 4 -8.5
v 5.5 5 9.5
v 5.5 5 4.5
v 5.5 5 -5.5
v 5.5 5 -8.5
v -0.5 4 9.5
v -0.5 4 4.5
v -0.5 4 -5.5
v -0.5 4 -8.5
v -0.5 5 9.5
v -0.5 5 4.5
v -0.5 5 -5.5
v -0.5 5 -8.5
v 0.5 4 11.5
v 0.5 4 9.5
v 0.5 5 11.5
v 0.5 5 9.5
v 0.5 11 3.5
v 0.5 11 2.5
v 0.5 12 3.5
v 0.5 12 2.5
v 3.5 0 14.5
v 3.5 0 13.5
v 3.5 0 -10.5
v 3.5 0 -11.5
v 3.5 1 15.5
v 3.5 1 14.5
v 3.5 4 -11.5
v 3.5 4 -13.5
v 3.5 5 15.5
v 3.5 5 14.5
v 3.5 5 13.5
v 3.5 5 -10.5
v 3.5 5 -13.5
v 4.5 0 13.5
v 4.5 0 12.5
v 4.5 0 -11.5
v 4.5 0 -13.5
v 4.5 4 7.5
v 4.5 4 4.5
v 4.5 4 -11.5
v 4.5 4 -13.5
v 4.5 5 13.5
v 4.5 5 12.5
v 4.5 6 7.5
v 4.5 6 4.5
v 5.5 0 12.5
v 5.5 0 -10.5
v 5.5 1 10.5
v 5.5 1 -9.5
v 5.5 5 12.5
v 5.5 5 10.5
v 5.5 5 4.5
v 5.5 5 3.5
v 5.5 5 -0.5
v 5.5 5 -5.5
v 5.5 5 -9.5
v 5.5 5 -10.5
v 5.5 6 -0.5
v 5.5 6 -5.5
v 5.5 7 4.5
v 5.5 7 3.5
v 5.5 7 2.5
v 5.5 7 1.5
v 5.5 7 -4.5
v 5.5 9 4.5
v 5.5 9 2.5
v 5.5 9 1.5
v 5.5 9 -4.5
v 5.5 9 -5.5
v 5.5 10 4.5
v 5.5 10 -5.5
v 5.5 11 4.5
v 5.5 11 2.5
v 5.5 11 -5.5
v 5.5 12 4.5
v 5.5 12 2.5
v 6.5 1 10.5
v 6.5 1 -9.5
v 6.5 3 9.5
v 6.5 3 -8.5
v 6.5 4 9.5
v 6.5 4 -8.5
v 6.5 5 10.5
v 6.5 5 -9.5
v 1.5 1 15.5
v 1.5 5 15.5
v 3.5 1 15.5
v 3.5 5 15.5
v 1.5 0 14.5
v 1.5 1 14.5
v 3.5 0 14.5
v 3.5 1 14.5
v 0.5 0 13.5
v 0.5 5 13.5
v 1.5 0 13.5
v 1.5 5 13.5
v 3.5 0 13.5
v 3.5 5 13.5
v 4.5 0 13.5
v 4.5 5 13.5
v -0.5 0 12.5
v -0.5 5 12.5
v 0.5 0 12.5
v 0.5 5 12.5
v 4.5 0 12.5
v 4.5 5 12.5
v 5.5 0 12.5
v 5.5 5 12.5
v -1.5 1 10.5
v -1.5 5 10.5
v -0.5 1 10.5
v -0.5 5 10.5
v 5.5 1 10.5
v 5.5 5 10.5
v 6.5 1 10.5
v 6.5 5 10.5
v 0.5 4 7.5
v 0.5 6 7.5
v 4.5 4 7.5
v 4.5 6 7.5
v -0.5 4 4.5
v -0.5 5 4.5
v -0.5 7 4.5
v -0.5 9 4.5
v -0.5 10 4.5
v -0.5 11 4.5
v -0.5 12 4.5
v 0.5 4 4.5
v 0.5 6 4.5
v 4.5 4 4.5
v 4.5 6 4.5
v 5.5 4 4.5
v 5.5 5 4.5
v 5.5 7 4.5
v 5.5 9 4.5
v 5.5 10 4.5
v 5.5 11 4.5
v 5.5 12 4.5
v -0.5 4 -8.5
v -0.5 5 -8.5
v 0.5 4 -8.5
v 5.5 4 -8.5
v 5.5 5 -8.5
v 0.5 0 -11.5
v 0.5 4 -11.5
v 1.5 0 -11.5
v 1.5 4 -11.5
v 3.5 0 -11.5
v 3.5 4 -11.5
v 4.5 0 -11.5
v 4.5 4 -11.5
v 0.5 4 11.5
v 0.5 5 11.5
v 4.5 4 11.5
v 4.5 5 11.5
v -0.5 4 9.5
v -0.5 5 9.5
v 0.5 4 9.5
v 0.5 5 9.5
v 4.5 4 9.5
v 4.5 5 9.5
v 5.5 4 9.5
v 5.5 5 9.5
v 0.5 11 3.5
v 0.5 12 3.5
v 4.5 11 3.5
v 4.5 12 3.5
v -0.5 11 2.5
v -0.5 12 2.5
v 0.5 11 2.5
v 0.5 12 2.5
v 4.5 11 2.5
v 4.5 12 2.5
v 5.5 11 2.5
v 5.5 12 2.5
v -0.5 4 -5.5
v -0.5 5 -5.5
v -0.5 9 -5.5
v -0.5 10 -5.5
v -0.5 11 -5.5
v 0.5 4 -5.5
v 0.5 5 -5.5
v 0.5 6 -5.5
v 0.5 7 -5.5
v 0.5 9 -5.5
v 4.5 7 -5.5
v 4.5 9 -5.5
v 5.5 4 -5.5
v 5.5 5 -5.5
v 5.5 6 -5.5
v 5.5 9 -5.5
v 5.5 10 -5.5
v 5.5 11 -5.5
v -1.5 1 -9.5
v -1.5 5 -9.5
v -0.5 1 -9.5
v -0.5 5 -9.5
v 5.5 1 -9.5
v 5.5 5 -9.5
v 6.5 1 -9.5
v 6.5 5 -9.5
v -0.5 0 -10.5
v -0.5 5 -10.5
v 1.5 0 -10.5
v 1.5 5 -10.5
v 3.5 0 -10.5
v 3.5 5 -10.5
v 5.5 0 -10.5
v 5.5 5 -10.5
v 0.5 0 -13.5
v 0.5 4 -13.5
v 1.5 4 -13.5
v 1.5 5 -13.5
v 3.5 4 -13.5
v 3.5 5 -13.5
v 4.5 0 -13.5
v 4.5 4 -13.5
v 1.5 0 14.5
v 3.5 0 14.5
v 0.5 0 13.5
v 1.5 0 13.5
v 3.5 0 13.5
v 4.5 0 13.5
v -0.5 0 12.5
v 0.5 0 12.5
v 1.5 0 12.5
v 3.5 0 12.5
v 4.5 0 12.5
v 5.5 0 12.5
v 0.5 0 -9.5
v 1.5 0 -9.5
v 3.5 0 -9.5
v 4.5 0 -9.5
v -0.5 0 -10.5
v 1.5 0 -10.5
v 3.5 0 -10.5
v 5.5 0 -10.5
v 0.5 0 -11.5
v 1.5 0 -11.5
v 3.5 0 -11.5
v 4.5 0 -11.5
v 1.5 0 -12.5
v 3.5 0 -12.5
v 0.5 0 -13.5
v 4.5 0 -13.5
v 1.5 1 15.5
v 3.5 1 15.5
v 1.5 1 14.5
v 3.5 1 14.5
v -1.5 1 10.5
v -0.5 1 10.5
v 5.5 1 10.5
v 6.5 1 10.5
v -1.5 1 -9.5
v -0.5 1 -9.5
v 5.5 1 -9.5
v 6.5 1 -9.5
v 0.5 4 11.5
v 4.5 4 11.5
v -0.5 4 9.5
v 0.5 4 9.5
v 4.5 4 9.5
v 5.5 4 9.5
v 0.5 4 7.5
v 4.5 4 7.5
v -0.5 4 4.5
v 0.5 4 4.5
v 4.5 4 4.5
v 5.5 4 4.5
v -0.5 4 -5.5
v 0.5 4 -5.5
v 5.5 4 -5.5
v -0.5 4 -8.5
v 0.5 4 -8.5
v 5.5 4 -8.5
v 0.5 4 -11.5
v 1.5 4 -11.5
v 3.5 4 -11.5
v 4.5 4 -11.5
v 0.5 4 -13.5
v 1.5 4 -13.5
v 3.5 4 -13.5
v 4.5 4 -13.5
v 1.5 5 15.5
v 3.5 5 15.5
v 1.5 5 14.5
v 3.5 5 14.5
v 0.5 5 13.5
v 1.5 5 13.5
v 3.5 5 13.5
v 4.5 5 13.5
v -0.5 5 12.5
v 0.5 5 12.5
v 4.5 5 12.5
v 5.5 5 12.5
v 0.5 5 11.5
v 4.5 5 11.5
v -1.5 5 10.5
v -0.5 5 10.5
v 5.5 5 10.5
v 6.5 5 10.5
v -0.5 5 9.5
v 0.5 5 9.5
v 4.5 5 9.5
v 5.5 5 9.5
v -0.5 5 4.5
v 5.5 5 4.5
v 5.5 5 3.5
v 5.5 5 -0.5
v -0.5 5 -5.5
v 5.5 5 -5.5
v -0.5 5 -8.5
v 5.5 5 -8.5
v -1.5 5 -9.5
v -0.5 5 -9.5
v 5.5 5 -9.5
v 6.5 5 -9.5
v -0.5 5 -10.5
v 1.5 5 -10.5
v 3.5 5 -10.5
v 5.5 5 -10.5
v 1.5 5 -13.5
v 3.5 5 -13.5
v 0.5 6 7.5
v 4.5 6 7.5
v 0.5 6 4.5
v 4.5 6 4.5
v 0.5 11 3.5
v 4.5 11 3.5
v -0.5 11 2.5
v 0.5 11 2.5
v 4.5 11 2.5
v 5.5 11 2.5
v -0.5 11 -5.5
v 5.5 11 -5.5
v -0.5 12 4.5
v 5.5 12 4.5
v 0.5 12 3.5
v 4.5 12 3.5
v -0.5 12 2.5
v 0.5 12 2.5
v 4.5 12 2.5
v 5.5 12 2.5

# faces
f 3/4/1 2/4/1 1/4/1
f 4/4/1 2/4/1 3/4/1
f 5/4/1 3/4/1 1/4/1
f 5/1/1 4/1/1 3/1/1
f 6/4/1 2/4/1 4/4/1
f 6/1/1 4/1/1 5/1/1
f 7/4/1 5/4/1 1/4/1
f 7/4/1 6/4/1 5/4/1
f 8/4/1 2/4/1 6/4/1
f 8/4/1 6/4/1 7/4/1
f 11/4/1 10/4/1 9/4/1
f 12/4/1 10/4/1 11/4/1
f 13/4/1 11/4/1 9/4/1
f 14/4/1 11/4/1 13/4/1
f 17/4/1 10/4/1 12/4/1
f 18/4/1 10/4/1 17/4/1
f 19/4/1 16/4/1 15/4/1
f 20/4/1 16/4/1 19/4/1
f 21/4/1 16/4/1 20/4/1
f 22/4/1 16/4/1 21/4/1
f 23/2/1 20/2/1 19/2/1
f 24/4/1 21/4/1 20/4/1
f 24/2/1 20/2/1 23/2/1
f 25/2/1 22/2/1 21/2/1
f 25/4/1 21/4/1 24/4/1
f 26/4/1 16/4/1 22/4/1
f 26/2/1 22/2/1 25/2/1
f 27/4/1 16/4/1 26/4/1
f 28/3/1 25/3/1 24/3/1
f 28/3/1 24/3/1 23/3/1
f 28/3/1 27/3/1 26/3/1
f 28/3/1 26/3/1 25/3/1
f 29/3/1 27/3/1 28/3/1
f 30/4/1 29/4/1 28/4/1
f 31/4/1 29/4/1 30/4/1
f 32/4/1 29/4/1 31/4/1
f 33/6/1 31/6/1 30/6/1
f 34/6/1 31/6/1 33/6/1
f 41/3/1 38/3/1 37/3/1
f 42/3/1 38/3/1 41/3/1
f 43/4/1 36/4/1 35/4/1
f 44/4/1 36/4/1 43/4/1
f 45/4/1 40/4/1 39/4/1
f 46/4/1 40/4/1 45/4/1
f 52/4/1 48/4/1 47/4/1
f 53/3/1 50/3/1 49/3/1
f 55/1/1 52/1/1 51/1/1
f 56/4/1 48/4/1 52/4/1
f 56/1/1 52/1/1 55/1/1
f 57/4/1 48/4/1 56/4/1
f 58/3/1 54/3/1 53/3/1
f 58/3/1 53/3/1 49/3/1
f 59/3/1 54/3/1 58/3/1
f 62/4/1 61/4/1 60/4/1
f 63/4/1 61/4/1 62/4/1
f 66/6/1 65/6/1 64/6/1
f 67/6/1 65/6/1 66/6/1
f 72/4/1 69/4/1 68/4/1
f 73/4/1 69/4/1 72/4/1
f 74/4/1 71/4/1 70/4/1
f 75/4/1 71/4/1 74/4/1
f 76/4/2 77/4/2 80/4/2
f 80/4/2 77/4/2 81/4/2
f 78/4/2 79/4/2 82/4/2
f 82/4/2 79/4/2 83/4/2
f 84/4/2 85/4/2 86/4/2
f 86/4/2 85/4/2 87/4/2
f 88/6/2 89/6/2 90/6/2
f 90/6/2 89/6/2 91/6/2
f 92/4/2 93/4/2 97/4/2
f 94/3/2 95/3/2 98/3/2
f 96/1/2 97/1/2 100/1/2
f 97/4/2 93/4/2 101/4/2
f 100/1/2 97/1/2 101/1/2
f 101/4/2 93/4/2 102/4/2
f 98/3/2 99/3/2 103/3/2
f 94/3/2 98/3/2 103/3/2
f 103/3/2 99/3/2 104/3/2
f 107/3/2 108/3/2 111/3/2
f 111/3/2 108/3/2 112/3/2
f 105/4/2 106/4/2 113/4/2
f 113/4/2 106/4/2 114/4/2
f 109/4/2 110/4/2 115/4/2
f 115/4/2 110/4/2 116/4/2
f 117/4/2 118/4/2 119/4/2
f 119/4/2 118/4/2 120/4/2
f 117/4/2 119/4/2 121/4/2
f 121/4/2 119/4/2 122/4/2
f 120/4/2 118/4/2 127/4/2
f 127/4/2 118/4/2 128/4/2
f 125/4/2 126/4/2 129/4/2
f 124/5/2 125/5/2 129/5/2
f 129/4/2 126/4/2 130/4/2
f 123/4/2 124/4/2 131/4/2
f 124/5/2 129/5/2 132/5/2
f 131/4/2 124/4/2 132/4/2
f 129/5/2 130/5/2 132/5/2
f 132/5/2 130/5/2 133/5/2
f 133/5/2 130/5/2 134/5/2
f 134/5/2 130/5/2 135/5/2
f 131/2/2 132/2/2 136/2/2
f 132/2/2 133/2/2 136/2/2
f 133/5/2 134/5/2 137/5/2
f 136/2/2 133/2/2 137/2/2
f 134/2/2 135/2/2 138/2/2
f 137/5/2 134/5/2 138/5/2
f 135/5/2 130/5/2 139/5/2
f 138/2/2 135/2/2 139/2/2
f 139/5/2 130/5/2 140/5/2
f 137/3/2 138/3/2 141/3/2
f 136/3/2 137/3/2 141/3/2
f 139/3/2 140/3/2 141/3/2
f 138/3/2 139/3/2 141/3/2
f 141/3/2 140/3/2 142/3/2
f 141/4/2 142/4/2 143/4/2
f 143/4/2 142/4/2 144/4/2
f 144/4/2 142/4/2 145/4/2
f 143/6/2 144/6/2 146/6/2
f 146/6/2 144/6/2 147/6/2
f 148/4/2 149/4/2 150/4/2
f 150/4/2 149/4/2 151/4/2
f 148/4/2 150/4/2 152/4/2
f 150/1/2 151/1/2 152/1/2
f 151/4/2 149/4/2 153/4/2
f 152/1/2 151/1/2 153/1/2
f 148/4/2 152/4/2 154/4/2
f 152/4/2 153/4/2 154/4/2
f 153/4/2 149/4/2 155/4/2
f 154/4/2 153/4/2 155/4/2
f 158/1/3 157/1/3 156/1/3
f 159/1/3 157/1/3 158/1/3
f 162/4/3 161/4/3 160/4/3
f 163/4/3 161/4/3 162/4/3
f 166/4/3 165/4/3 164/4/3
f 167/4/3 165/4/3 166/4/3
f 170/4/3 169/4/3 168/4/3
f 171/4/3 169/4/3 170/4/3
f 174/4/3 173/4/3 172/4/3
f 175/4/3 173/4/3 174/4/3
f 178/4/3 177/4/3 176/4/3
f 179/4/3 177/4/3 178/4/3
f 182/4/3 181/4/3 180/4/3
f 183/4/3 181/4/3 182/4/3
f 186/4/3 185/4/3 184/4/3
f 187/4/3 185/4/3 186/4/3
f 190/4/3 189/4/3 188/4/3
f 191/4/3 189/4/3 190/4/3
f 199/4/3 193/4/3 192/4/3
f 199/4/3 194/4/3 193/4/3
f 200/4/3 194/4/3 199/4/3
f 202/4/3 194/4/3 200/4/3
f 203/4/3 202/4/3 201/4/3
f 204/4/3 202/4/3 203/4/3
f 205/2/3 195/2/3 194/2/3
f 205/4/3 202/4/3 204/4/3
f 205/4/3 194/4/3 202/4/3
f 206/3/3 196/3/3 195/3/3
f 206/2/3 195/2/3 205/2/3
f 207/4/3 197/4/3 196/4/3
f 207/3/3 196/3/3 206/3/3
f 208/6/3 198/6/3 197/6/3
f 208/4/3 197/4/3 207/4/3
f 209/6/3 198/6/3 208/6/3
f 212/4/3 211/4/3 210/4/3
f 213/4/3 211/4/3 212/4/3
f 214/4/3 211/4/3 213/4/3
f 217/3/3 216/3/3 215/3/3
f 218/3/3 216/3/3 217/3/3
f 221/3/3 220/3/3 219/3/3
f 222/3/3 220/3/3 221/3/3
f 223/4/4 224/4/4 225/4/4
f 225/4/4 224/4/4 226/4/4
f 227/4/4 228/4/4 229/4/4
f 229/4/4 228/4/4 230/4/4
f 231/4/4 232/4/4 233/4/4
f 233/4/4 232/4/4 234/4/4
f 235/6/4 236/6/4 237/6/4
f 237/6/4 236/6/4 238/6/4
f 239/6/4 240/6/4 241/6/4
f 241/6/4 240/6/4 242/6/4
f 243/6/4 244/6/4 245/6/4
f 245/6/4 244/6/4 246/6/4
f 247/4/4 248/4/4 252/4/4
f 248/4/4 249/4/4 252/4/4
f 252/4/4 249/4/4 253/4/4
f 253/4/4 249/4/4 254/4/4
f 254/4/4 249/4/4 255/4/4
f 249/3/4 250/3/4 256/3/4
f 255/4/4 249/4/4 256/4/4
f 254/5/4 255/5/4 257/5/4
f 255/2/4 256/2/4 257/2/4
f 256/3/4 250/3/4 258/3/4
f 257/2/4 256/2/4 258/2/4
f 252/5/4 253/5/4 259/5/4
f 253/4/4 254/4/4 260/4/4
f 259/5/4 253/5/4 260/5/4
f 254/5/4 257/5/4 261/5/4
f 260/4/4 254/4/4 261/4/4
f 257/5/4 258/5/4 261/5/4
f 258/3/4 250/3/4 262/3/4
f 261/5/4 258/5/4 262/5/4
f 250/4/4 251/4/4 263/4/4
f 262/3/4 250/3/4 263/3/4
f 263/4/4 251/4/4 264/4/4
f 265/4/4 266/4/4 267/4/4
f 267/4/4 266/4/4 268/4/4
f 269/4/4 270/4/4 271/4/4
f 271/4/4 270/4/4 272/4/4
f 273/4/4 274/4/4 275/4/4
f 275/4/4 274/4/4 276/4/4
f 277/4/4 278/4/4 279/4/4
f 279/4/4 278/4/4 280/4/4
f 281/3/4 282/3/4 283/3/4
f 281/3/4 283/3/4 285/3/4
f 283/3/4 284/3/4 285/3/4
f 285/3/4 284/3/4 286/3/4
f 281/3/4 285/3/4 287/3/4
f 287/3/4 285/3/4 288/3/4
f 292/4/5 290/4/5 289/4/5
f 293/4/5 290/4/5 292/4/5
f 296/4/5 292/4/5 291/4/5
f 297/7/5 293/7/5 292/7/5
f 297/4/5 292/4/5 296/4/5
f 298/4/5 294/4/5 293/4/5
f 298/7/5 293/7/5 297/7/5
f 299/4/5 294/4/5 298/4/5
f 301/7/5 297/7/5 296/7/5
f 301/4/5 296/4/5 295/4/5
f 301/7/5 299/7/5 298/7/5
f 301/7/5 298/7/5 297/7/5
f 302/7/5 299/7/5 301/7/5
f 303/7/5 299/7/5 302/7/5
f 304/4/5 300/4/5 299/4/5
f 304/7/5 299/7/5 303/7/5
f 305/4/5 301/4/5 295/4/5
f 305/4/5 302/4/5 301/4/5
f 306/7/5 303/7/5 302/7/5
f 306/4/5 302/4/5 305/4/5
f 307/4/5 304/4/5 303/4/5
f 307/7/5 303/7/5 306/7/5
f 308/4/5 300/4/5 304/4/5
f 308/4/5 304/4/5 307/4/5
f 310/3/5 307/3/5 306/3/5
f 311/3/5 307/3/5 310/3/5
f 313/3/5 310/3/5 309/3/5
f 313/5/5 311/5/5 310/5/5
f 314/3/5 312/3/5 311/3/5
f 314/5/5 311/5/5 313/5/5
f 315/3/5 313/3/5 309/3/5
f 315/3/5 314/3/5 313/3/5
f 316/3/5 312/3/5 314/3/5
f 316/3/5 314/3/5 315/3/5
f 319/1/5 318/1/5 317/1/5
f 320/1/5 318/1/5 319/1/5
f 325/4/5 322/4/5 321/4/5
f 326/4/5 322/4/5 325/4/5
f 327/4/5 324/4/5 323/4/5
f 328/4/5 324/4/5 327/4/5
f 329/4/6 330/4/6 332/4/6
f 332/4/6 330/4/6 333/4/6
f 331/4/6 332/4/6 335/4/6
f 333/4/6 334/4/6 335/4/6
f 332/4/6 333/4/6 335/4/6
f 335/4/6 334/4/6 336/4/6
f 331/4/6 335/4/6 337/4/6
f 337/4/6 335/4/6 338/4/6
f 336/4/6 334/4/6 339/4/6
f 339/4/6 334/4/6 340/4/6
f 341/4/6 342/4/6 344/4/6
f 342/5/6 343/5/6 345/5/6
f 344/4/6 342/4/6 345/4/6
f 345/5/6 343/5/6 346/5/6
f 347/3/6 348/3/6 351/3/6
f 351/3/6 348/3/6 352/3/6
f 349/3/6 350/3/6 353/3/6
f 353/3/6 350/3/6 354/3/6
f 355/1/6 356/1/6 357/1/6
f 357/1/6 356/1/6 358/1/6
f 357/4/6 358/4/6 360/4/6
f 360/4/6 358/4/6 361/4/6
f 360/4/6 361/4/6 364/4/6
f 361/4/6 362/4/6 364/4/6
f 359/4/6 360/4/6 364/4/6
f 364/4/6 362/4/6 365/4/6
f 363/4/6 364/4/6 367/4/6
f 365/4/6 366/4/6 367/4/6
f 364/4/6 365/4/6 367/4/6
f 367/4/6 366/4/6 368/4/6
f 363/4/6 367/4/6 370/4/6
f 368/4/6 366/4/6 371/4/6
f 369/4/6 370/4/6 373/4/6
f 370/4/6 367/4/6 373/4/6
f 373/4/6 367/4/6 374/4/6
f 371/4/6 372/4/6 375/4/6
f 368/4/6 371/4/6 375/4/6
f 375/4/6 372/4/6 376/4/6
f 369/4/6 373/4/6 377/4/6
f 376/4/6 372/4/6 378/4/6
f 378/4/6 372/4/6 379/4/6
f 379/4/6 372/4/6 380/4/6
f 369/4/6 377/4/6 381/4/6
f 380/4/6 372/4/6 382/4/6
f 369/4/6 381/4/6 383/4/6
f 382/4/6 372/4/6 384/4/6
f 369/4/6 383/4/6 385/4/6
f 383/4/6 384/4/6 385/4/6
f 385/4/6 384/4/6 386/4/6
f 384/4/6 372/4/6 387/4/6
f 386/4/6 384/4/6 387/4/6
f 387/4/6 372/4/6 388/4/6
f 386/4/6 387/4/6 389/4/6
f 389/4/6 387/4/6 390/4/6
f 390/4/6 387/4/6 391/4/6
f 391/4/6 387/4/6 392/4/6
f 390/3/6 391/3/6 393/3/6
f 393/3/6 391/3/6 394/3/6
f 395/4/6 396/4/6 397/4/6
f 397/4/6 396/4/6 398/4/6
f 399/4/6 400/4/6 402/4/6
f 402/4/6 400/4/6 403/4/6
f 401/4/6 402/4/6 405/4/6
f 403/4/6 404/4/6 405/4/6
f 402/4/6 403/4/6 405/4/6
f 405/4/6 404/4/6 406/4/6
f 407/6/6 408/6/6 409/6/6
f 409/6/6 408/6/6 410/6/6
f 407/6/6 409/6/6 411/6/6
f 411/6/6 409/6/6 412/6/6
f 410/6/6 408/6/6 413/6/6
f 413/6/6 408/6/6 414/6/6
