# MagicaVoxel @ ephtracy

# material
mtllib poliisivene.mtl
usemtl palette

# normals
vn -1 0 0
vn 1 0 0
vn 0 0 1
vn 0 0 -1
vn 0 -1 0
vn 0 1 0

# texcoords
vt 0.306641 0.5
vt 0.845703 0.5
vt 0.923828 0.5
vt 0.927734 0.5
vt 0.931641 0.5
vt 0.955078 0.5
vt 0.962891 0.5
vt 0.982422 0.5

# verts
v -1.5 1 10.5
v -1.5 1 -9.5
v -1.5 2 10.5
v -1.5 2 -9.5
v -1.5 3 10.5
v -1.5 3 -9.5
v -1.5 5 10.5
v -1.5 5 -9.5
v -0.5 0 12.5
v -0.5 0 -10.5
v -0.5 1 10.5
v -0.5 1 -9.5
v -0.5 2 10.5
v -0.5 2 -9.5
v -0.5 3 10.5
v -0.5 3 -9.5
v -0.5 5 12.5
v -0.5 5 10.5
v -0.5 5 4.5
v -0.5 5 -0.5
v -0.5 5 -5.5
v -0.5 5 -9.5
v -0.5 5 -10.5
v -0.5 6 -0.5
v -0.5 6 -5.5
v -0.5 7 4.5
v -0.5 7 2.5
v -0.5 7 1.5
v -0.5 7 -4.5
v -0.5 9 4.5
v -0.5 9 2.5
v -0.5 9 1.5
v -0.5 9 -4.5
v -0.5 9 -5.5
v -0.5 10 4.5
v -0.5 10 1.5
v -0.5 10 -1.5
v -0.5 10 -5.5
v -0.5 12 1.5
v -0.5 12 -1.5
v 0.5 0 13.5
v 0.5 0 12.5
v 0.5 0 -11.5
v 0.5 0 -13.5
v 0.5 4 -11.5
v 0.5 4 -13.5
v 0.5 5 13.5
v 0.5 5 12.5
v 1.5 0 14.5
v 1.5 0 13.5
v 1.5 0 -10.5
v 1.5 0 -11.5
v 1.5 1 15.5
v 1.5 1 14.5
v 1.5 4 -11.5
v 1.5 4 -13.5
v 1.5 5 15.5
v 1.5 5 13.5
v 1.5 5 -10.5
v 1.5 5 -13.5
v 4.5 4 11.5
v 4.5 4 9.5
v 4.5 5 11.5
v 4.5 5 9.5
v 5.5 4 9.5
v 5.5 4 4.5
v 5.5 4 -5.5
v 5.5 4 -8.5
v 5.5 5 9.5
v 5.5 5 4.5
v 5.5 5 -5.5
v 5.5 5 -8.5
v -0.5 4 9.5
v -0.5 4 4.5
v -0.5 4 -5.5
v -0.5 4 -8.5
v -0.5 5 9.5
v -0.5 5 4.5
v -0.5 5 -5.5
v -0.5 5 -8.5
v 0.5 4 11.5
v 0.5 4 9.5
v 0.5 5 11.5
v 0.5 5 9.5
v 3.5 0 14.5
v 3.5 0 13.5
v 3.5 0 -10.5
v 3.5 0 -11.5
v 3.5 1 15.5
v 3.5 1 14.5
v 3.5 4 -11.5
v 3.5 4 -13.5
v 3.5 5 15.5
v 3.5 5 13.5
v 3.5 5 -10.5
v 3.5 5 -13.5
v 4.5 0 13.5
v 4.5 0 12.5
v 4.5 0 -11.5
v 4.5 0 -13.5
v 4.5 4 -11.5
v 4.5 4 -13.5
v 4.5 5 13.5
v 4.5 5 12.5
v 5.5 0 12.5
v 5.5 0 -10.5
v 5.5 1 10.5
v 5.5 1 -9.5
v 5.5 2 10.5
v 5.5 2 -9.5
v 5.5 3 10.5
v 5.5 3 -9.5
v 5.5 5 12.5
v 5.5 5 10.5
v 5.5 5 4.5
v 5.5 5 -0.5
v 5.5 5 -5.5
v 5.5 5 -9.5
v 5.5 5 -10.5
v 5.5 6 -0.5
v 5.5 6 -5.5
v 5.5 7 4.5
v 5.5 7 2.5
v 5.5 7 1.5
v 5.5 7 -4.5
v 5.5 9 4.5
v 5.5 9 2.5
v 5.5 9 1.5
v 5.5 9 -4.5
v 5.5 9 -5.5
v 5.5 10 4.5
v 5.5 10 1.5
v 5.5 10 -1.5
v 5.5 10 -5.5
v 5.5 12 1.5
v 5.5 12 -1.5
v 6.5 1 10.5
v 6.5 1 -9.5
v 6.5 2 10.5
v 6.5 2 -9.5
v 6.5 3 10.5
v 6.5 3 -9.5
v 6.5 5 10.5
v 6.5 5 -9.5
v 1.5 1 15.5
v 1.5 5 15.5
v 3.5 1 15.5
v 3.5 5 15.5
v 1.5 0 14.5
v 1.5 1 14.5
v 3.5 0 14.5
v 3.5 1 14.5
v 0.5 0 13.5
v 0.5 5 13.5
v 1.5 0 13.5
v 1.5 5 13.5
v 3.5 0 13.5
v 3.5 5 13.5
v 4.5 0 13.5
v 4.5 5 13.5
v -0.5 0 12.5
v -0.5 5 12.5
v 0.5 0 12.5
v 0.5 5 12.5
v 4.5 0 12.5
v 4.5 5 12.5
v 5.5 0 12.5
v 5.5 5 12.5
v -1.5 1 10.5
v -1.5 2 10.5
v -1.5 3 10.5
v -1.5 5 10.5
v -0.5 1 10.5
v -0.5 2 10.5
v -0.5 3 10.5
v -0.5 5 10.5
v 5.5 1 10.5
v 5.5 2 10.5
v 5.5 3 10.5
v 5.5 5 10.5
v 6.5 1 10.5
v 6.5 2 10.5
v 6.5 3 10.5
v 6.5 5 10.5
v -0.5 4 4.5
v -0.5 5 4.5
v -0.5 7 4.5
v -0.5 9 4.5
v -0.5 10 4.5
v 5.5 4 4.5
v 5.5 5 4.5
v 5.5 7 4.5
v 5.5 9 4.5
v 5.5 10 4.5
v -0.5 10 1.5
v -0.5 12 1.5
v 1.5 10 1.5
v 1.5 12 1.5
v 2.5 10 1.5
v 2.5 12 1.5
v 5.5 10 1.5
v 5.5 12 1.5
v -0.5 4 -8.5
v -0.5 5 -8.5
v 5.5 4 -8.5
v 5.5 5 -8.5
v 0.5 0 -11.5
v 0.5 4 -11.5
v 1.5 0 -11.5
v 1.5 4 -11.5
v 3.5 0 -11.5
v 3.5 4 -11.5
v 4.5 0 -11.5
v 4.5 4 -11.5
v 0.5 4 11.5
v 0.5 5 11.5
v 4.5 4 11.5
v 4.5 5 11.5
v -0.5 4 9.5
v -0.5 5 9.5
v 0.5 4 9.5
v 0.5 5 9.5
v 4.5 4 9.5
v 4.5 5 9.5
v 5.5 4 9.5
v 5.5 5 9.5
v -0.5 10 -1.5
v -0.5 12 -1.5
v 1.5 10 -1.5
v 1.5 12 -1.5
v 2.5 10 -1.5
v 2.5 12 -1.5
v 5.5 10 -1.5
v 5.5 12 -1.5
v -0.5 4 -5.5
v -0.5 5 -5.5
v -0.5 6 -5.5
v -0.5 9 -5.5
v -0.5 10 -5.5
v 0.5 7 -5.5
v 0.5 9 -5.5
v 4.5 7 -5.5
v 4.5 9 -5.5
v 5.5 4 -5.5
v 5.5 5 -5.5
v 5.5 6 -5.5
v 5.5 9 -5.5
v 5.5 10 -5.5
v -1.5 1 -9.5
v -1.5 2 -9.5
v -1.5 3 -9.5
v -1.5 5 -9.5
v -0.5 1 -9.5
v -0.5 2 -9.5
v -0.5 3 -9.5
v -0.5 5 -9.5
v 5.5 1 -9.5
v 5.5 2 -9.5
v 5.5 3 -9.5
v 5.5 5 -9.5
v 6.5 1 -9.5
v 6.5 2 -9.5
v 6.5 3 -9.5
v 6.5 5 -9.5
v -0.5 0 -10.5
v -0.5 5 -10.5
v 1.5 0 -10.5
v 1.5 5 -10.5
v 3.5 0 -10.5
v 3.5 5 -10.5
v 5.5 0 -10.5
v 5.5 5 -10.5
v 0.5 0 -13.5
v 0.5 4 -13.5
v 1.5 4 -13.5
v 1.5 5 -13.5
v 3.5 4 -13.5
v 3.5 5 -13.5
v 4.5 0 -13.5
v 4.5 4 -13.5
v 1.5 0 14.5
v 3.5 0 14.5
v 0.5 0 13.5
v 1.5 0 13.5
v 3.5 0 13.5
v 4.5 0 13.5
v -0.5 0 12.5
v 0.5 0 12.5
v 4.5 0 12.5
v 5.5 0 12.5
v -0.5 0 -10.5
v 1.5 0 -10.5
v 3.5 0 -10.5
v 5.5 0 -10.5
v 0.5 0 -11.5
v 1.5 0 -11.5
v 3.5 0 -11.5
v 4.5 0 -11.5
v 1.5 0 -12.5
v 3.5 0 -12.5
v 0.5 0 -13.5
v 4.5 0 -13.5
v 1.5 1 15.5
v 3.5 1 15.5
v 1.5 1 14.5
v 3.5 1 14.5
v -1.5 1 10.5
v -0.5 1 10.5
v 5.5 1 10.5
v 6.5 1 10.5
v -1.5 1 -9.5
v -0.5 1 -9.5
v 5.5 1 -9.5
v 6.5 1 -9.5
v 0.5 4 11.5
v 4.5 4 11.5
v -0.5 4 9.5
v 0.5 4 9.5
v 4.5 4 9.5
v 5.5 4 9.5
v -0.5 4 4.5
v 5.5 4 4.5
v -0.5 4 -5.5
v 5.5 4 -5.5
v -0.5 4 -8.5
v 5.5 4 -8.5
v 0.5 4 -11.5
v 1.5 4 -11.5
v 3.5 4 -11.5
v 4.5 4 -11.5
v 0.5 4 -13.5
v 1.5 4 -13.5
v 3.5 4 -13.5
v 4.5 4 -13.5
v 1.5 5 15.5
v 3.5 5 15.5
v 0.5 5 13.5
v 1.5 5 13.5
v 3.5 5 13.5
v 4.5 5 13.5
v -0.5 5 12.5
v 0.5 5 12.5
v 4.5 5 12.5
v 5.5 5 12.5
v 0.5 5 11.5
v 4.5 5 11.5
v -1.5 5 10.5
v -0.5 5 10.5
v 5.5 5 10.5
v 6.5 5 10.5
v -0.5 5 9.5
v 0.5 5 9.5
v 4.5 5 9.5
v 5.5 5 9.5
v -0.5 5 4.5
v 5.5 5 4.5
v -0.5 5 -0.5
v 5.5 5 -0.5
v -0.5 5 -5.5
v 5.5 5 -5.5
v -0.5 5 -8.5
v 5.5 5 -8.5
v -1.5 5 -9.5
v -0.5 5 -9.5
v 5.5 5 -9.5
v 6.5 5 -9.5
v -0.5 5 -10.5
v 1.5 5 -10.5
v 3.5 5 -10.5
v 5.5 5 -10.5
v 1.5 5 -13.5
v 3.5 5 -13.5
v -0.5 10 4.5
v 5.5 10 4.5
v -0.5 10 1.5
v 1.5 10 1.5
v 2.5 10 1.5
v 5.5 10 1.5
v -0.5 10 -1.5
v 1.5 10 -1.5
v 2.5 10 -1.5
v 5.5 10 -1.5
v -0.5 10 -5.5
v 5.5 10 -5.5
v -0.5 12 1.5
v 1.5 12 1.5
v 2.5 12 1.5
v 5.5 12 1.5
v -0.5 12 -1.5
v 1.5 12 -1.5
v 2.5 12 -1.5
v 5.5 12 -1.5

# faces
f 3/8/1 2/8/1 1/8/1
f 4/8/1 2/8/1 3/8/1
f 5/5/1 4/5/1 3/5/1
f 6/5/1 4/5/1 5/5/1
f 7/8/1 6/8/1 5/8/1
f 8/8/1 6/8/1 7/8/1
f 11/8/1 10/8/1 9/8/1
f 12/8/1 10/8/1 11/8/1
f 13/8/1 11/8/1 9/8/1
f 14/8/1 10/8/1 12/8/1
f 15/8/1 13/8/1 9/8/1
f 16/8/1 10/8/1 14/8/1
f 17/8/1 15/8/1 9/8/1
f 18/8/1 15/8/1 17/8/1
f 22/8/1 10/8/1 16/8/1
f 23/8/1 10/8/1 22/8/1
f 24/3/1 21/3/1 20/3/1
f 24/7/1 20/7/1 19/7/1
f 25/3/1 21/3/1 24/3/1
f 26/7/1 24/7/1 19/7/1
f 26/7/1 25/7/1 24/7/1
f 27/7/1 25/7/1 26/7/1
f 28/7/1 25/7/1 27/7/1
f 29/7/1 25/7/1 28/7/1
f 30/1/1 27/1/1 26/1/1
f 31/7/1 28/7/1 27/7/1
f 31/1/1 27/1/1 30/1/1
f 32/1/1 29/1/1 28/1/1
f 32/7/1 28/7/1 31/7/1
f 33/7/1 25/7/1 29/7/1
f 33/1/1 29/1/1 32/1/1
f 34/7/1 25/7/1 33/7/1
f 35/6/1 32/6/1 31/6/1
f 35/6/1 31/6/1 30/6/1
f 35/6/1 34/6/1 33/6/1
f 35/6/1 33/6/1 32/6/1
f 36/6/1 34/6/1 35/6/1
f 37/6/1 34/6/1 36/6/1
f 38/6/1 34/6/1 37/6/1
f 39/5/1 37/5/1 36/5/1
f 40/5/1 37/5/1 39/5/1
f 45/6/1 44/6/1 43/6/1
f 46/6/1 44/6/1 45/6/1
f 47/8/1 42/8/1 41/8/1
f 48/8/1 42/8/1 47/8/1
f 54/8/1 50/8/1 49/8/1
f 55/6/1 52/6/1 51/6/1
f 57/8/1 54/8/1 53/8/1
f 58/8/1 50/8/1 54/8/1
f 58/8/1 54/8/1 57/8/1
f 59/6/1 56/6/1 55/6/1
f 59/6/1 55/6/1 51/6/1
f 60/6/1 56/6/1 59/6/1
f 63/8/1 62/8/1 61/8/1
f 64/8/1 62/8/1 63/8/1
f 69/8/1 66/8/1 65/8/1
f 70/8/1 66/8/1 69/8/1
f 71/8/1 68/8/1 67/8/1
f 72/8/1 68/8/1 71/8/1
f 73/8/2 74/8/2 77/8/2
f 77/8/2 74/8/2 78/8/2
f 75/8/2 76/8/2 79/8/2
f 79/8/2 76/8/2 80/8/2
f 81/8/2 82/8/2 83/8/2
f 83/8/2 82/8/2 84/8/2
f 85/8/2 86/8/2 90/8/2
f 87/6/2 88/6/2 91/6/2
f 89/8/2 90/8/2 93/8/2
f 90/8/2 86/8/2 94/8/2
f 93/8/2 90/8/2 94/8/2
f 91/6/2 92/6/2 95/6/2
f 87/6/2 91/6/2 95/6/2
f 95/6/2 92/6/2 96/6/2
f 99/6/2 100/6/2 101/6/2
f 101/6/2 100/6/2 102/6/2
f 97/8/2 98/8/2 103/8/2
f 103/8/2 98/8/2 104/8/2
f 105/8/2 106/8/2 107/8/2
f 107/8/2 106/8/2 108/8/2
f 105/8/2 107/8/2 109/8/2
f 108/8/2 106/8/2 110/8/2
f 105/8/2 109/8/2 111/8/2
f 110/8/2 106/8/2 112/8/2
f 105/8/2 111/8/2 113/8/2
f 113/8/2 111/8/2 114/8/2
f 112/8/2 106/8/2 118/8/2
f 118/8/2 106/8/2 119/8/2
f 116/3/2 117/3/2 120/3/2
f 115/7/2 116/7/2 120/7/2
f 120/3/2 117/3/2 121/3/2
f 115/7/2 120/7/2 122/7/2
f 120/7/2 121/7/2 122/7/2
f 122/7/2 121/7/2 123/7/2
f 123/7/2 121/7/2 124/7/2
f 124/7/2 121/7/2 125/7/2
f 122/1/2 123/1/2 126/1/2
f 123/7/2 124/7/2 127/7/2
f 126/1/2 123/1/2 127/1/2
f 124/1/2 125/1/2 128/1/2
f 127/7/2 124/7/2 128/7/2
f 125/7/2 121/7/2 129/7/2
f 128/1/2 125/1/2 129/1/2
f 129/7/2 121/7/2 130/7/2
f 127/6/2 128/6/2 131/6/2
f 126/6/2 127/6/2 131/6/2
f 129/6/2 130/6/2 131/6/2
f 128/6/2 129/6/2 131/6/2
f 131/6/2 130/6/2 132/6/2
f 132/6/2 130/6/2 133/6/2
f 133/6/2 130/6/2 134/6/2
f 132/2/2 133/2/2 135/2/2
f 135/2/2 133/2/2 136/2/2
f 137/8/2 138/8/2 139/8/2
f 139/8/2 138/8/2 140/8/2
f 139/5/2 140/5/2 141/5/2
f 141/5/2 140/5/2 142/5/2
f 141/8/2 142/8/2 143/8/2
f 143/8/2 142/8/2 144/8/2
f 147/8/3 146/8/3 145/8/3
f 148/8/3 146/8/3 147/8/3
f 151/8/3 150/8/3 149/8/3
f 152/8/3 150/8/3 151/8/3
f 155/8/3 154/8/3 153/8/3
f 156/8/3 154/8/3 155/8/3
f 159/8/3 158/8/3 157/8/3
f 160/8/3 158/8/3 159/8/3
f 163/8/3 162/8/3 161/8/3
f 164/8/3 162/8/3 163/8/3
f 167/8/3 166/8/3 165/8/3
f 168/8/3 166/8/3 167/8/3
f 173/8/3 170/8/3 169/8/3
f 174/5/3 171/5/3 170/5/3
f 174/8/3 170/8/3 173/8/3
f 175/8/3 172/8/3 171/8/3
f 175/5/3 171/5/3 174/5/3
f 176/8/3 172/8/3 175/8/3
f 181/8/3 178/8/3 177/8/3
f 182/5/3 179/5/3 178/5/3
f 182/8/3 178/8/3 181/8/3
f 183/8/3 180/8/3 179/8/3
f 183/5/3 179/5/3 182/5/3
f 184/8/3 180/8/3 183/8/3
f 190/7/3 186/7/3 185/7/3
f 190/7/3 187/7/3 186/7/3
f 191/7/3 187/7/3 190/7/3
f 192/1/3 188/1/3 187/1/3
f 192/7/3 187/7/3 191/7/3
f 193/6/3 189/6/3 188/6/3
f 193/1/3 188/1/3 192/1/3
f 194/6/3 189/6/3 193/6/3
f 197/5/3 196/5/3 195/5/3
f 198/5/3 196/5/3 197/5/3
f 199/4/3 198/4/3 197/4/3
f 200/4/3 198/4/3 199/4/3
f 201/2/3 200/2/3 199/2/3
f 202/2/3 200/2/3 201/2/3
f 205/8/3 204/8/3 203/8/3
f 206/8/3 204/8/3 205/8/3
f 209/6/3 208/6/3 207/6/3
f 210/6/3 208/6/3 209/6/3
f 213/6/3 212/6/3 211/6/3
f 214/6/3 212/6/3 213/6/3
f 215/8/4 216/8/4 217/8/4
f 217/8/4 216/8/4 218/8/4
f 219/8/4 220/8/4 221/8/4
f 221/8/4 220/8/4 222/8/4
f 223/8/4 224/8/4 225/8/4
f 225/8/4 224/8/4 226/8/4
f 227/5/4 228/5/4 229/5/4
f 229/5/4 228/5/4 230/5/4
f 229/4/4 230/4/4 231/4/4
f 231/4/4 230/4/4 232/4/4
f 231/2/4 232/2/4 233/2/4
f 233/2/4 232/2/4 234/2/4
f 237/7/4 238/7/4 240/7/4
f 238/6/4 239/6/4 241/6/4
f 240/7/4 238/7/4 241/7/4
f 237/7/4 240/7/4 242/7/4
f 240/1/4 241/1/4 242/1/4
f 241/6/4 239/6/4 243/6/4
f 242/1/4 241/1/4 243/1/4
f 235/7/4 236/7/4 244/7/4
f 236/3/4 237/3/4 245/3/4
f 244/7/4 236/7/4 245/7/4
f 237/7/4 242/7/4 246/7/4
f 245/3/4 237/3/4 246/3/4
f 242/7/4 243/7/4 246/7/4
f 243/6/4 239/6/4 247/6/4
f 246/7/4 243/7/4 247/7/4
f 247/6/4 239/6/4 248/6/4
f 249/8/4 250/8/4 253/8/4
f 250/5/4 251/5/4 254/5/4
f 253/8/4 250/8/4 254/8/4
f 251/8/4 252/8/4 255/8/4
f 254/5/4 251/5/4 255/5/4
f 255/8/4 252/8/4 256/8/4
f 257/8/4 258/8/4 261/8/4
f 258/5/4 259/5/4 262/5/4
f 261/8/4 258/8/4 262/8/4
f 259/8/4 260/8/4 263/8/4
f 262/5/4 259/5/4 263/5/4
f 263/8/4 260/8/4 264/8/4
f 265/8/4 266/8/4 267/8/4
f 267/8/4 266/8/4 268/8/4
f 269/8/4 270/8/4 271/8/4
f 271/8/4 270/8/4 272/8/4
f 273/6/4 274/6/4 275/6/4
f 273/6/4 275/6/4 277/6/4
f 275/6/4 276/6/4 277/6/4
f 277/6/4 276/6/4 278/6/4
f 273/6/4 277/6/4 279/6/4
f 279/6/4 277/6/4 280/6/4
f 284/8/5 282/8/5 281/8/5
f 285/8/5 282/8/5 284/8/5
f 288/8/5 284/8/5 283/8/5
f 288/8/5 286/8/5 285/8/5
f 288/8/5 285/8/5 284/8/5
f 289/8/5 286/8/5 288/8/5
f 291/8/5 288/8/5 287/8/5
f 291/8/5 290/8/5 289/8/5
f 291/8/5 289/8/5 288/8/5
f 292/8/5 290/8/5 291/8/5
f 293/8/5 290/8/5 292/8/5
f 294/8/5 290/8/5 293/8/5
f 296/6/5 293/6/5 292/6/5
f 297/6/5 293/6/5 296/6/5
f 299/6/5 296/6/5 295/6/5
f 299/7/5 297/7/5 296/7/5
f 300/6/5 298/6/5 297/6/5
f 300/7/5 297/7/5 299/7/5
f 301/6/5 299/6/5 295/6/5
f 301/6/5 300/6/5 299/6/5
f 302/6/5 298/6/5 300/6/5
f 302/6/5 300/6/5 301/6/5
f 305/8/5 304/8/5 303/8/5
f 306/8/5 304/8/5 305/8/5
f 311/8/5 308/8/5 307/8/5
f 312/8/5 308/8/5 311/8/5
f 313/8/5 310/8/5 309/8/5
f 314/8/5 310/8/5 313/8/5
f 315/7/6 316/7/6 318/7/6
f 318/7/6 316/7/6 319/7/6
f 317/7/6 318/7/6 321/7/6
f 319/7/6 320/7/6 321/7/6
f 318/7/6 319/7/6 321/7/6
f 321/7/6 320/7/6 322/7/6
f 323/7/6 324/7/6 325/7/6
f 325/7/6 324/7/6 326/7/6
f 327/6/6 328/6/6 331/6/6
f 331/6/6 328/6/6 332/6/6
f 329/6/6 330/6/6 333/6/6
f 333/6/6 330/6/6 334/6/6
f 335/8/6 336/8/6 338/8/6
f 338/8/6 336/8/6 339/8/6
f 337/8/6 338/8/6 342/8/6
f 339/8/6 340/8/6 342/8/6
f 338/8/6 339/8/6 342/8/6
f 342/8/6 340/8/6 343/8/6
f 341/8/6 342/8/6 345/8/6
f 343/8/6 344/8/6 345/8/6
f 342/8/6 343/8/6 345/8/6
f 345/8/6 344/8/6 346/8/6
f 341/8/6 345/8/6 348/8/6
f 346/8/6 344/8/6 349/8/6
f 347/8/6 348/8/6 351/8/6
f 348/8/6 345/8/6 351/8/6
f 351/8/6 345/8/6 352/8/6
f 349/8/6 350/8/6 353/8/6
f 346/8/6 349/8/6 353/8/6
f 353/8/6 350/8/6 354/8/6
f 347/8/6 351/8/6 355/8/6
f 354/8/6 350/8/6 356/8/6
f 347/8/6 355/8/6 357/8/6
f 356/8/6 350/8/6 358/8/6
f 347/8/6 357/8/6 359/8/6
f 358/8/6 350/8/6 360/8/6
f 347/8/6 359/8/6 361/8/6
f 360/8/6 350/8/6 362/8/6
f 347/8/6 361/8/6 363/8/6
f 361/8/6 362/8/6 363/8/6
f 363/8/6 362/8/6 364/8/6
f 362/8/6 350/8/6 365/8/6
f 364/8/6 362/8/6 365/8/6
f 365/8/6 350/8/6 366/8/6
f 364/8/6 365/8/6 367/8/6
f 367/8/6 365/8/6 368/8/6
f 368/8/6 365/8/6 369/8/6
f 369/8/6 365/8/6 370/8/6
f 368/6/6 369/6/6 371/6/6
f 371/6/6 369/6/6 372/6/6
f 373/6/6 374/6/6 375/6/6
f 375/6/6 374/6/6 376/6/6
f 376/6/6 374/6/6 377/6/6
f 377/6/6 374/6/6 378/6/6
f 379/6/6 380/6/6 383/6/6
f 381/6/6 382/6/6 383/6/6
f 380/6/6 381/6/6 383/6/6
f 383/6/6 382/6/6 384/6/6
f 385/5/6 386/5/6 389/5/6
f 386/4/6 387/4/6 390/4/6
f 389/5/6 386/5/6 390/5/6
f 387/2/6 388/2/6 391/2/6
f 390/4/6 387/4/6 391/4/6
f 391/2/6 388/2/6 392/2/6
