# MagicaVoxel @ ephtracy

# material
mtllib ukko.mtl
usemtl palette

# normals
vn -1 0 0
vn 1 0 0
vn 0 0 1
vn 0 0 -1
vn 0 -1 0
vn 0 1 0

# texcoords
vt 0.0332031 0.5
vt 0.494141 0.5
vt 0.869141 0.5

# verts
v -6.5 14 4.5
v -6.5 14 2.5
v -6.5 14 -9.5
v -6.5 14 -11.5
v -6.5 15 4.5
v -6.5 15 2.5
v -6.5 15 -9.5
v -6.5 15 -11.5
v -4.5 15 4.5
v -4.5 15 2.5
v -4.5 15 -9.5
v -4.5 15 -11.5
v -4.5 16 4.5
v -4.5 16 2.5
v -4.5 16 -9.5
v -4.5 16 -11.5
v -2.5 0 -0.5
v -2.5 0 -2.5
v -2.5 0 -4.5
v -2.5 0 -6.5
v -2.5 1 -0.5
v -2.5 1 -2.5
v -2.5 1 -4.5
v -2.5 1 -6.5
v -2.5 8 -0.5
v -2.5 8 -6.5
v -2.5 9 -0.5
v -2.5 9 -6.5
v -2.5 16 -0.5
v -2.5 16 -6.5
v -2.5 17 -1.5
v -2.5 17 -5.5
v -2.5 20 -1.5
v -2.5 20 -2.5
v -2.5 20 -4.5
v -2.5 20 -5.5
v -2.5 21 -2.5
v -2.5 21 -4.5
v -1.5 1 -0.5
v -1.5 1 -2.5
v -1.5 1 -4.5
v -1.5 1 -6.5
v -1.5 7 -2.5
v -1.5 7 -4.5
v -1.5 8 -0.5
v -1.5 8 -2.5
v -1.5 8 -4.5
v -1.5 8 -6.5
v -1.5 14 2.5
v -1.5 14 -0.5
v -1.5 14 -6.5
v -1.5 14 -9.5
v -1.5 16 2.5
v -1.5 16 -0.5
v -1.5 16 -2.5
v -1.5 16 -4.5
v -1.5 16 -6.5
v -1.5 16 -9.5
v -1.5 17 -2.5
v -1.5 17 -4.5
v -1.5 20 -1.5
v -1.5 20 -2.5
v -1.5 20 -4.5
v -1.5 20 -5.5
v -1.5 21 -1.5
v -1.5 21 -2.5
v -1.5 21 -4.5
v -1.5 21 -5.5
v -0.5 14 -10.5
v -0.5 14 -11.5
v -0.5 16 -10.5
v -0.5 16 -11.5
v 0.5 0 -0.5
v 0.5 0 -2.5
v 0.5 0 -4.5
v 0.5 0 -6.5
v 0.5 7 -0.5
v 0.5 7 -2.5
v 0.5 7 -4.5
v 0.5 7 -6.5
v 0.5 14 4.5
v 0.5 14 -0.5
v 0.5 14 -6.5
v 0.5 14 -10.5
v 0.5 16 4.5
v 0.5 16 -0.5
v 0.5 16 -2.5
v 0.5 16 -4.5
v 0.5 16 -6.5
v 0.5 16 -10.5
v 0.5 17 -2.5
v 0.5 17 -4.5
v 0.5 20 -1.5
v 0.5 20 -2.5
v 0.5 20 -4.5
v 0.5 20 -5.5
v 0.5 21 -1.5
v 0.5 21 -2.5
v 0.5 21 -4.5
v 0.5 21 -5.5
v 1.5 7 -0.5
v 1.5 7 -6.5
v 1.5 9 -0.5
v 1.5 9 -6.5
v 1.5 16 -0.5
v 1.5 16 -6.5
v 1.5 17 -1.5
v 1.5 17 -5.5
v 1.5 19 -1.5
v 1.5 19 -5.5
v 1.5 20 -1.5
v 1.5 20 -2.5
v 1.5 20 -4.5
v 1.5 20 -5.5
v 1.5 21 -2.5
v 1.5 21 -4.5
v -6.5 14 4.5
v -6.5 15 4.5
v -4.5 15 4.5
v -4.5 16 4.5
v 0.5 14 4.5
v 0.5 16 4.5
v -2.5 0 -0.5
v -2.5 1 -0.5
v -2.5 8 -0.5
v -2.5 9 -0.5
v -2.5 16 -0.5
v -1.5 1 -0.5
v -1.5 8 -0.5
v -1.5 14 -0.5
v -1.5 16 -0.5
v 0.5 0 -0.5
v 0.5 7 -0.5
v 0.5 8 -0.5
v 0.5 14 -0.5
v 0.5 16 -0.5
v 1.5 7 -0.5
v 1.5 9 -0.5
v 1.5 16 -0.5
v -2.5 17 -1.5
v -2.5 20 -1.5
v -1.5 20 -1.5
v -1.5 21 -1.5
v 0.5 19 -1.5
v 0.5 20 -1.5
v 0.5 21 -1.5
v 1.5 17 -1.5
v 1.5 19 -1.5
v 1.5 20 -1.5
v -2.5 20 -2.5
v -2.5 21 -2.5
v -1.5 16 -2.5
v -1.5 17 -2.5
v -1.5 20 -2.5
v -1.5 21 -2.5
v 0.5 16 -2.5
v 0.5 17 -2.5
v 0.5 20 -2.5
v 0.5 21 -2.5
v 1.5 20 -2.5
v 1.5 21 -2.5
v -2.5 0 -4.5
v -2.5 1 -4.5
v -1.5 1 -4.5
v -1.5 7 -4.5
v 0.5 0 -4.5
v 0.5 7 -4.5
v -6.5 14 -9.5
v -6.5 15 -9.5
v -4.5 15 -9.5
v -4.5 16 -9.5
v -1.5 14 -9.5
v -1.5 16 -9.5
v -6.5 14 2.5
v -6.5 15 2.5
v -4.5 15 2.5
v -4.5 16 2.5
v -1.5 14 2.5
v -1.5 16 2.5
v -2.5 0 -2.5
v -2.5 1 -2.5
v -1.5 1 -2.5
v -1.5 7 -2.5
v 0.5 0 -2.5
v 0.5 7 -2.5
v -2.5 20 -4.5
v -2.5 21 -4.5
v -1.5 16 -4.5
v -1.5 17 -4.5
v -1.5 20 -4.5
v -1.5 21 -4.5
v 0.5 16 -4.5
v 0.5 17 -4.5
v 0.5 20 -4.5
v 0.5 21 -4.5
v 1.5 20 -4.5
v 1.5 21 -4.5
v -2.5 17 -5.5
v -2.5 20 -5.5
v -1.5 20 -5.5
v -1.5 21 -5.5
v 0.5 19 -5.5
v 0.5 20 -5.5
v 0.5 21 -5.5
v 1.5 17 -5.5
v 1.5 19 -5.5
v 1.5 20 -5.5
v -2.5 0 -6.5
v -2.5 1 -6.5
v -2.5 8 -6.5
v -2.5 9 -6.5
v -2.5 16 -6.5
v -1.5 1 -6.5
v -1.5 8 -6.5
v -1.5 14 -6.5
v -1.5 16 -6.5
v 0.5 0 -6.5
v 0.5 7 -6.5
v 0.5 8 -6.5
v 0.5 14 -6.5
v 0.5 16 -6.5
v 1.5 7 -6.5
v 1.5 9 -6.5
v 1.5 16 -6.5
v -0.5 14 -10.5
v -0.5 16 -10.5
v 0.5 14 -10.5
v 0.5 16 -10.5
v -6.5 14 -11.5
v -6.5 15 -11.5
v -4.5 15 -11.5
v -4.5 16 -11.5
v -0.5 14 -11.5
v -0.5 16 -11.5
v -2.5 0 -0.5
v 0.5 0 -0.5
v -2.5 0 -2.5
v 0.5 0 -2.5
v -2.5 0 -4.5
v 0.5 0 -4.5
v -2.5 0 -6.5
v 0.5 0 -6.5
v 0.5 7 -0.5
v 1.5 7 -0.5
v -1.5 7 -2.5
v 0.5 7 -2.5
v -1.5 7 -4.5
v 0.5 7 -4.5
v 0.5 7 -6.5
v 1.5 7 -6.5
v -2.5 8 -0.5
v -1.5 8 -0.5
v -1.5 8 -2.5
v -1.5 8 -4.5
v -2.5 8 -6.5
v -1.5 8 -6.5
v -6.5 14 4.5
v 0.5 14 4.5
v -6.5 14 2.5
v -1.5 14 2.5
v -1.5 14 -0.5
v 0.5 14 -0.5
v -1.5 14 -6.5
v 0.5 14 -6.5
v -6.5 14 -9.5
v -1.5 14 -9.5
v -0.5 14 -10.5
v 0.5 14 -10.5
v -6.5 14 -11.5
v -0.5 14 -11.5
v -2.5 17 -1.5
v 1.5 17 -1.5
v -1.5 17 -2.5
v 0.5 17 -2.5
v -1.5 17 -4.5
v 0.5 17 -4.5
v -2.5 17 -5.5
v 1.5 17 -5.5
v -2.5 1 -0.5
v -1.5 1 -0.5
v -2.5 1 -2.5
v -1.5 1 -2.5
v -2.5 1 -4.5
v -1.5 1 -4.5
v -2.5 1 -6.5
v -1.5 1 -6.5
v -6.5 15 4.5
v -4.5 15 4.5
v -6.5 15 2.5
v -4.5 15 2.5
v -6.5 15 -9.5
v -4.5 15 -9.5
v -6.5 15 -11.5
v -4.5 15 -11.5
v -4.5 16 4.5
v 0.5 16 4.5
v -4.5 16 2.5
v -1.5 16 2.5
v -2.5 16 -0.5
v -1.5 16 -0.5
v 0.5 16 -0.5
v 1.5 16 -0.5
v -1.5 16 -2.5
v 0.5 16 -2.5
v -1.5 16 -4.5
v 0.5 16 -4.5
v -2.5 16 -6.5
v -1.5 16 -6.5
v 0.5 16 -6.5
v 1.5 16 -6.5
v -4.5 16 -9.5
v -1.5 16 -9.5
v -0.5 16 -10.5
v 0.5 16 -10.5
v -4.5 16 -11.5
v -0.5 16 -11.5
v -2.5 20 -1.5
v -1.5 20 -1.5
v 0.5 20 -1.5
v 1.5 20 -1.5
v -2.5 20 -2.5
v -1.5 20 -2.5
v 0.5 20 -2.5
v 1.5 20 -2.5
v -2.5 20 -4.5
v -1.5 20 -4.5
v 0.5 20 -4.5
v 1.5 20 -4.5
v -2.5 20 -5.5
v -1.5 20 -5.5
v 0.5 20 -5.5
v 1.5 20 -5.5
v -1.5 21 -1.5
v 0.5 21 -1.5
v -2.5 21 -2.5
v -1.5 21 -2.5
v 0.5 21 -2.5
v 1.5 21 -2.5
v -2.5 21 -4.5
v -1.5 21 -4.5
v 0.5 21 -4.5
v 1.5 21 -4.5
v -1.5 21 -5.5
v 0.5 21 -5.5

# faces
f 5/1/1 2/1/1 1/1/1
f 6/1/1 2/1/1 5/1/1
f 7/1/1 4/1/1 3/1/1
f 8/1/1 4/1/1 7/1/1
f 13/1/1 10/1/1 9/1/1
f 14/1/1 10/1/1 13/1/1
f 15/1/1 12/1/1 11/1/1
f 16/1/1 12/1/1 15/1/1
f 21/1/1 18/1/1 17/1/1
f 22/1/1 18/1/1 21/1/1
f 23/1/1 20/1/1 19/1/1
f 24/1/1 20/1/1 23/1/1
f 27/2/1 26/2/1 25/2/1
f 28/2/1 26/2/1 27/2/1
f 29/1/1 28/1/1 27/1/1
f 30/1/1 28/1/1 29/1/1
f 33/1/1 32/1/1 31/1/1
f 34/1/1 32/1/1 33/1/1
f 35/1/1 32/1/1 34/1/1
f 36/1/1 32/1/1 35/1/1
f 37/3/1 35/3/1 34/3/1
f 38/3/1 35/3/1 37/3/1
f 43/1/1 40/1/1 39/1/1
f 44/1/1 42/1/1 41/1/1
f 45/1/1 43/1/1 39/1/1
f 46/2/1 44/2/1 43/2/1
f 46/1/1 43/1/1 45/1/1
f 47/1/1 42/1/1 44/1/1
f 47/2/1 44/2/1 46/2/1
f 48/1/1 42/1/1 47/1/1
f 53/1/1 50/1/1 49/1/1
f 54/1/1 50/1/1 53/1/1
f 57/1/1 52/1/1 51/1/1
f 58/1/1 52/1/1 57/1/1
f 59/1/1 56/1/1 55/1/1
f 60/1/1 56/1/1 59/1/1
f 65/3/1 62/3/1 61/3/1
f 66/3/1 62/3/1 65/3/1
f 67/3/1 64/3/1 63/3/1
f 68/3/1 64/3/1 67/3/1
f 69/1/2 70/1/2 71/1/2
f 71/1/2 70/1/2 72/1/2
f 73/1/2 74/1/2 77/1/2
f 77/1/2 74/1/2 78/1/2
f 75/1/2 76/1/2 79/1/2
f 79/1/2 76/1/2 80/1/2
f 81/1/2 82/1/2 85/1/2
f 85/1/2 82/1/2 86/1/2
f 83/1/2 84/1/2 89/1/2
f 89/1/2 84/1/2 90/1/2
f 87/1/2 88/1/2 91/1/2
f 91/1/2 88/1/2 92/1/2
f 93/3/2 94/3/2 97/3/2
f 97/3/2 94/3/2 98/3/2
f 95/3/2 96/3/2 99/3/2
f 99/3/2 96/3/2 100/3/2
f 101/2/2 102/2/2 103/2/2
f 103/2/2 102/2/2 104/2/2
f 103/1/2 104/1/2 105/1/2
f 105/1/2 104/1/2 106/1/2
f 107/1/2 108/1/2 109/1/2
f 109/1/2 108/1/2 110/1/2
f 109/3/2 110/3/2 111/3/2
f 111/3/2 110/3/2 112/3/2
f 112/3/2 110/3/2 113/3/2
f 113/3/2 110/3/2 114/3/2
f 112/3/2 113/3/2 115/3/2
f 115/3/2 113/3/2 116/3/2
f 119/1/3 118/1/3 117/1/3
f 121/1/3 119/1/3 117/1/3
f 121/1/3 120/1/3 119/1/3
f 122/1/3 120/1/3 121/1/3
f 128/1/3 124/1/3 123/1/3
f 129/2/3 126/2/3 125/2/3
f 130/1/3 127/1/3 126/1/3
f 131/1/3 127/1/3 130/1/3
f 132/1/3 129/1/3 128/1/3
f 132/1/3 128/1/3 123/1/3
f 133/1/3 129/1/3 132/1/3
f 134/2/3 126/2/3 129/2/3
f 134/1/3 129/1/3 133/1/3
f 135/1/3 130/1/3 126/1/3
f 137/2/3 134/2/3 133/2/3
f 138/2/3 126/2/3 134/2/3
f 138/2/3 134/2/3 137/2/3
f 138/1/3 136/1/3 135/1/3
f 138/1/3 135/1/3 126/1/3
f 139/1/3 136/1/3 138/1/3
f 142/1/3 141/1/3 140/1/3
f 144/1/3 142/1/3 140/1/3
f 145/3/3 143/3/3 142/3/3
f 145/1/3 142/1/3 144/1/3
f 146/3/3 143/3/3 145/3/3
f 147/1/3 144/1/3 140/1/3
f 148/3/3 145/3/3 144/3/3
f 148/1/3 144/1/3 147/1/3
f 149/3/3 145/3/3 148/3/3
f 154/3/3 151/3/3 150/3/3
f 155/3/3 151/3/3 154/3/3
f 156/1/3 153/1/3 152/1/3
f 157/1/3 153/1/3 156/1/3
f 160/3/3 159/3/3 158/3/3
f 161/3/3 159/3/3 160/3/3
f 164/1/3 163/1/3 162/1/3
f 166/1/3 164/1/3 162/1/3
f 166/1/3 165/1/3 164/1/3
f 167/1/3 165/1/3 166/1/3
f 170/1/3 169/1/3 168/1/3
f 172/1/3 170/1/3 168/1/3
f 172/1/3 171/1/3 170/1/3
f 173/1/3 171/1/3 172/1/3
f 174/1/4 175/1/4 176/1/4
f 174/1/4 176/1/4 178/1/4
f 176/1/4 177/1/4 178/1/4
f 178/1/4 177/1/4 179/1/4
f 180/1/4 181/1/4 182/1/4
f 180/1/4 182/1/4 184/1/4
f 182/1/4 183/1/4 184/1/4
f 184/1/4 183/1/4 185/1/4
f 186/3/4 187/3/4 190/3/4
f 190/3/4 187/3/4 191/3/4
f 188/1/4 189/1/4 192/1/4
f 192/1/4 189/1/4 193/1/4
f 194/3/4 195/3/4 196/3/4
f 196/3/4 195/3/4 197/3/4
f 198/1/4 199/1/4 200/1/4
f 198/1/4 200/1/4 202/1/4
f 200/3/4 201/3/4 203/3/4
f 202/1/4 200/1/4 203/1/4
f 203/3/4 201/3/4 204/3/4
f 198/1/4 202/1/4 205/1/4
f 202/3/4 203/3/4 206/3/4
f 205/1/4 202/1/4 206/1/4
f 206/3/4 203/3/4 207/3/4
f 208/1/4 209/1/4 213/1/4
f 210/2/4 211/2/4 214/2/4
f 211/1/4 212/1/4 215/1/4
f 215/1/4 212/1/4 216/1/4
f 213/1/4 214/1/4 217/1/4
f 208/1/4 213/1/4 217/1/4
f 217/1/4 214/1/4 218/1/4
f 214/2/4 211/2/4 219/2/4
f 218/1/4 214/1/4 219/1/4
f 211/1/4 215/1/4 220/1/4
f 218/2/4 219/2/4 222/2/4
f 219/2/4 211/2/4 223/2/4
f 222/2/4 219/2/4 223/2/4
f 220/1/4 221/1/4 223/1/4
f 211/1/4 220/1/4 223/1/4
f 223/1/4 221/1/4 224/1/4
f 225/1/4 226/1/4 227/1/4
f 227/1/4 226/1/4 228/1/4
f 229/1/4 230/1/4 231/1/4
f 229/1/4 231/1/4 233/1/4
f 231/1/4 232/1/4 233/1/4
f 233/1/4 232/1/4 234/1/4
f 237/1/5 236/1/5 235/1/5
f 238/1/5 236/1/5 237/1/5
f 241/1/5 240/1/5 239/1/5
f 242/1/5 240/1/5 241/1/5
f 246/2/5 244/2/5 243/2/5
f 247/2/5 246/2/5 245/2/5
f 248/2/5 244/2/5 246/2/5
f 248/2/5 246/2/5 247/2/5
f 249/2/5 244/2/5 248/2/5
f 250/2/5 244/2/5 249/2/5
f 253/2/5 252/2/5 251/2/5
f 254/2/5 253/2/5 251/2/5
f 255/2/5 254/2/5 251/2/5
f 256/2/5 254/2/5 255/2/5
f 259/1/5 258/1/5 257/1/5
f 260/1/5 258/1/5 259/1/5
f 261/1/5 258/1/5 260/1/5
f 262/1/5 258/1/5 261/1/5
f 266/1/5 264/1/5 263/1/5
f 267/1/5 264/1/5 266/1/5
f 267/1/5 266/1/5 265/1/5
f 268/1/5 264/1/5 267/1/5
f 269/1/5 267/1/5 265/1/5
f 270/1/5 267/1/5 269/1/5
f 273/1/5 272/1/5 271/1/5
f 274/1/5 272/1/5 273/1/5
f 275/1/5 273/1/5 271/1/5
f 276/1/5 272/1/5 274/1/5
f 277/1/5 275/1/5 271/1/5
f 277/1/5 276/1/5 275/1/5
f 278/1/5 272/1/5 276/1/5
f 278/1/5 276/1/5 277/1/5
f 279/1/6 280/1/6 281/1/6
f 281/1/6 280/1/6 282/1/6
f 283/1/6 284/1/6 285/1/6
f 285/1/6 284/1/6 286/1/6
f 287/1/6 288/1/6 289/1/6
f 289/1/6 288/1/6 290/1/6
f 291/1/6 292/1/6 293/1/6
f 293/1/6 292/1/6 294/1/6
f 295/1/6 296/1/6 297/1/6
f 297/1/6 296/1/6 298/1/6
f 298/1/6 296/1/6 300/1/6
f 300/1/6 296/1/6 301/1/6
f 299/1/6 300/1/6 303/1/6
f 301/1/6 302/1/6 303/1/6
f 300/1/6 301/1/6 303/1/6
f 303/1/6 302/1/6 304/1/6
f 299/1/6 303/1/6 305/1/6
f 304/1/6 302/1/6 306/1/6
f 299/1/6 305/1/6 307/1/6
f 305/1/6 306/1/6 307/1/6
f 307/1/6 306/1/6 308/1/6
f 306/1/6 302/1/6 309/1/6
f 308/1/6 306/1/6 309/1/6
f 309/1/6 302/1/6 310/1/6
f 308/1/6 309/1/6 312/1/6
f 312/1/6 309/1/6 313/1/6
f 311/1/6 312/1/6 313/1/6
f 313/1/6 309/1/6 314/1/6
f 311/1/6 313/1/6 315/1/6
f 315/1/6 313/1/6 316/1/6
f 317/1/6 318/1/6 321/1/6
f 321/1/6 318/1/6 322/1/6
f 319/3/6 320/3/6 323/3/6
f 323/3/6 320/3/6 324/3/6
f 325/1/6 326/1/6 329/1/6
f 329/1/6 326/1/6 330/1/6
f 327/3/6 328/3/6 331/3/6
f 331/3/6 328/3/6 332/3/6
f 333/3/6 334/3/6 336/3/6
f 336/3/6 334/3/6 337/3/6
f 335/3/6 336/3/6 339/3/6
f 337/3/6 338/3/6 339/3/6
f 336/3/6 337/3/6 339/3/6
f 339/3/6 338/3/6 340/3/6
f 340/3/6 338/3/6 341/3/6
f 341/3/6 338/3/6 342/3/6
f 340/3/6 341/3/6 343/3/6
f 343/3/6 341/3/6 344/3/6
